<?xml version="1.0" encoding="UTF-8" standalone="no" ?>
<!DOCTYPE svg PUBLIC "-//W3C//DTD SVG 1.1//EN" "http://www.w3.org/Graphics/SVG/1.1/DTD/svg11.dtd">
<svg xmlns="http://www.w3.org/2000/svg" xmlns:xlink="http://www.w3.org/1999/xlink" version="1.1" width="640" height="480" viewBox="0 0 640 480" xml:space="preserve">
<desc>Created with Fabric.js 3.6.6</desc>
<defs>
</defs>
<g transform="matrix(1 0 0 1 317.5 396.94)"  >
<rect style="stroke: none; stroke-width: 0; stroke-dasharray: 1 10; stroke-linecap: butt; stroke-dashoffset: 0; stroke-linejoin: miter; stroke-miterlimit: 4; fill: rgb(200,16,47); fill-rule: nonzero; opacity: 1;" vector-effect="non-scaling-stroke"  x="-131" y="-19" rx="8" ry="8" width="262" height="38" />
</g>
<g transform="matrix(1 0 0 1 317.31 219.63)"  >
<rect style="stroke: rgb(229,231,235); stroke-width: 0; stroke-dasharray: 1 10; stroke-linecap: butt; stroke-dashoffset: 0; stroke-linejoin: miter; stroke-miterlimit: 4; fill: none; fill-rule: nonzero; opacity: 1;" vector-effect="non-scaling-stroke"  x="-173.25" y="-21.905" rx="9.96" ry="9.96" width="346.5" height="43.81" />
</g>
<g transform="matrix(1 0 0 1 150.91 181.08)"  >
<path style="stroke: none; stroke-width: 0; stroke-dasharray: 1 10; stroke-linecap: butt; stroke-dashoffset: 0; stroke-linejoin: miter; stroke-miterlimit: 4; fill: rgb(163,165,168); fill-rule: nonzero; opacity: 1;" vector-effect="non-scaling-stroke"  transform=" translate(-49.41, -164.58)" d="M 45.27 157.88 h 8.07 v 2 h -5.69 v 3.44 h 4.82 v 2 h -4.82 v 3.97 h 5.9 v 2 h -8.28 v -13.41 Z" stroke-linecap="round" />
</g>
<g transform="matrix(1 0 0 1 164.8 182.64)"  >
<path style="stroke: none; stroke-width: 0; stroke-dasharray: 1 10; stroke-linecap: butt; stroke-dashoffset: 0; stroke-linejoin: miter; stroke-miterlimit: 4; fill: rgb(163,165,168); fill-rule: nonzero; opacity: 1;" vector-effect="non-scaling-stroke"  transform=" translate(-63.3, -166.14)" d="M 56.1 161.22 h 1.94 l 0.18 1.37 h 0.07 c 0.85 -0.89 1.83 -1.62 3.09 -1.62 c 1.48 0 2.32 0.67 2.78 1.8 c 0.96 -1.03 1.96 -1.8 3.24 -1.8 c 2.12 0 3.11 1.46 3.11 4 v 6.32 h -2.36 v -6.01 c 0 -1.66 -0.49 -2.28 -1.55 -2.28 c -0.64 0 -1.33 0.41 -2.11 1.26 v 7.04 h -2.36 v -6.01 c 0 -1.66 -0.49 -2.28 -1.55 -2.28 c -0.62 0 -1.33 0.41 -2.11 1.26 v 7.04 h -2.36 v -10.07 Z" stroke-linecap="round" />
</g>
<g transform="matrix(1 0 0 1 178.49 182.75)"  >
<path style="stroke: none; stroke-width: 0; stroke-dasharray: 1 10; stroke-linecap: butt; stroke-dashoffset: 0; stroke-linejoin: miter; stroke-miterlimit: 4; fill: rgb(163,165,168); fill-rule: nonzero; opacity: 1;" vector-effect="non-scaling-stroke"  transform=" translate(-76.98, -166.25)" d="M 72.85 168.59 c 0 -2.16 1.79 -3.28 5.92 -3.72 c -0.03 -1.08 -0.47 -1.99 -1.83 -1.99 c -1 0 -1.94 0.45 -2.83 0.99 l -0.87 -1.58 c 1.11 -0.7 2.54 -1.32 4.13 -1.32 c 2.52 0 3.76 1.55 3.76 4.36 v 5.96 h -1.94 l -0.18 -1.12 h -0.07 c -0.9 0.77 -1.94 1.36 -3.12 1.36 c -1.76 0 -2.98 -1.2 -2.98 -2.95 Z m 5.92 0 v -2.26 c -2.73 0.34 -3.64 1.06 -3.64 2.08 c 0 0.89 0.61 1.28 1.45 1.28 s 1.44 -0.4 2.19 -1.09 Z" stroke-linecap="round" />
</g>
<g transform="matrix(1 0 0 1 186.66 180.53)"  >
<path style="stroke: none; stroke-width: 0; stroke-dasharray: 1 10; stroke-linecap: butt; stroke-dashoffset: 0; stroke-linejoin: miter; stroke-miterlimit: 4; fill: rgb(163,165,168); fill-rule: nonzero; opacity: 1;" vector-effect="non-scaling-stroke"  transform=" translate(-85.16, -164.03)" d="M 83.7 158.12 c 0 -0.8 0.62 -1.34 1.46 -1.34 s 1.46 0.54 1.46 1.34 s -0.62 1.34 -1.46 1.34 s -1.46 -0.56 -1.46 -1.34 Z m 0.27 3.1 h 2.36 v 10.07 h -2.36 v -10.07 Z" stroke-linecap="round" />
</g>
<g transform="matrix(1 0 0 1 192.62 180.68)"  >
<path style="stroke: none; stroke-width: 0; stroke-dasharray: 1 10; stroke-linecap: butt; stroke-dashoffset: 0; stroke-linejoin: miter; stroke-miterlimit: 4; fill: rgb(163,165,168); fill-rule: nonzero; opacity: 1;" vector-effect="non-scaling-stroke"  transform=" translate(-91.12, -164.18)" d="M 89.35 168.7 v -11.89 h 2.36 v 12.02 c 0 0.58 0.26 0.79 0.51 0.79 c 0.11 0 0.19 0 0.37 -0.04 l 0.3 1.76 c -0.29 0.11 -0.68 0.21 -1.25 0.21 c -1.67 0 -2.29 -1.08 -2.29 -2.84 Z" stroke-linecap="round" />
</g>
<g transform="matrix(1 0 0 1 278.88 397.37)"  >
<path style="stroke: none; stroke-width: 0; stroke-dasharray: 1 10; stroke-linecap: butt; stroke-dashoffset: 0; stroke-linejoin: miter; stroke-miterlimit: 4; fill: rgb(255,255,255); fill-rule: nonzero; opacity: 1;" vector-effect="non-scaling-stroke"  transform=" translate(-177.38, -380.87)" d="M 172.25 380.92 c 0 -4.39 2.75 -7 6.14 -7 c 1.68 0 3.02 0.8 3.86 1.7 l -1.27 1.53 c -0.69 -0.69 -1.49 -1.16 -2.54 -1.16 c -2.18 0 -3.75 1.85 -3.75 4.86 s 1.44 4.91 3.69 4.91 c 1.19 0 2.11 -0.55 2.86 -1.38 l 1.27 1.49 c -1.09 1.26 -2.49 1.95 -4.22 1.95 c -3.37 0 -6.05 -2.47 -6.05 -6.91 Z" stroke-linecap="round" />
</g>
<g transform="matrix(1 0 0 1 290.19 399.04)"  >
<path style="stroke: none; stroke-width: 0; stroke-dasharray: 1 10; stroke-linecap: butt; stroke-dashoffset: 0; stroke-linejoin: miter; stroke-miterlimit: 4; fill: rgb(255,255,255); fill-rule: nonzero; opacity: 1;" vector-effect="non-scaling-stroke"  transform=" translate(-188.69, -382.54)" d="M 183.9 382.55 c 0 -3.36 2.28 -5.29 4.79 -5.29 s 4.79 1.94 4.79 5.29 s -2.28 5.27 -4.79 5.27 s -4.79 -1.94 -4.79 -5.27 Z m 7.15 0 c 0 -2.02 -0.89 -3.36 -2.36 -3.36 s -2.36 1.34 -2.36 3.36 s 0.89 3.35 2.36 3.35 s 2.36 -1.33 2.36 -3.35 Z" stroke-linecap="round" />
</g>
<g transform="matrix(1 0 0 1 301.63 398.92)"  >
<path style="stroke: none; stroke-width: 0; stroke-dasharray: 1 10; stroke-linecap: butt; stroke-dashoffset: 0; stroke-linejoin: miter; stroke-miterlimit: 4; fill: rgb(255,255,255); fill-rule: nonzero; opacity: 1;" vector-effect="non-scaling-stroke"  transform=" translate(-200.13, -382.42)" d="M 195.83 377.5 h 1.94 l 0.18 1.36 h 0.07 c 0.9 -0.88 1.93 -1.61 3.31 -1.61 c 2.16 0 3.1 1.46 3.1 4 v 6.32 h -2.36 v -6.01 c 0 -1.66 -0.48 -2.28 -1.57 -2.28 c -0.89 0 -1.47 0.44 -2.3 1.26 v 7.04 h -2.36 v -10.07 Z" stroke-linecap="round" />
</g>
<g transform="matrix(1 0 0 1 311.06 397.78)"  >
<path style="stroke: none; stroke-width: 0; stroke-dasharray: 1 10; stroke-linecap: butt; stroke-dashoffset: 0; stroke-linejoin: miter; stroke-miterlimit: 4; fill: rgb(255,255,255); fill-rule: nonzero; opacity: 1;" vector-effect="non-scaling-stroke"  transform=" translate(-209.56, -381.28)" d="M 207.66 384.18 v -4.8 h -1.44 v -1.77 l 1.56 -0.11 l 0.28 -2.75 h 1.96 v 2.75 h 2.57 v 1.88 h -2.57 v 4.79 c 0 1.19 0.46 1.77 1.43 1.77 c 0.34 0 0.75 -0.11 1.05 -0.23 l 0.4 1.74 c -0.55 0.18 -1.25 0.37 -2.06 0.37 c -2.32 0 -3.18 -1.47 -3.18 -3.64 Z" stroke-linecap="round" />
</g>
<g transform="matrix(1 0 0 1 317.41 396.81)"  >
<path style="stroke: none; stroke-width: 0; stroke-dasharray: 1 10; stroke-linecap: butt; stroke-dashoffset: 0; stroke-linejoin: miter; stroke-miterlimit: 4; fill: rgb(255,255,255); fill-rule: nonzero; opacity: 1;" vector-effect="non-scaling-stroke"  transform=" translate(-215.91, -380.31)" d="M 214.45 374.4 c 0 -0.79 0.62 -1.34 1.46 -1.34 s 1.46 0.54 1.46 1.34 s -0.62 1.34 -1.46 1.34 s -1.46 -0.56 -1.46 -1.34 Z m 0.27 3.1 h 2.36 v 10.07 h -2.36 v -10.07 Z" stroke-linecap="round" />
</g>
<g transform="matrix(1 0 0 1 325.89 398.92)"  >
<path style="stroke: none; stroke-width: 0; stroke-dasharray: 1 10; stroke-linecap: butt; stroke-dashoffset: 0; stroke-linejoin: miter; stroke-miterlimit: 4; fill: rgb(255,255,255); fill-rule: nonzero; opacity: 1;" vector-effect="non-scaling-stroke"  transform=" translate(-224.39, -382.42)" d="M 220.09 377.5 h 1.94 l 0.18 1.36 h 0.07 c 0.9 -0.88 1.93 -1.61 3.31 -1.61 c 2.16 0 3.1 1.46 3.1 4 v 6.32 h -2.36 v -6.01 c 0 -1.66 -0.48 -2.28 -1.57 -2.28 c -0.89 0 -1.47 0.44 -2.3 1.26 v 7.04 h -2.36 v -10.07 Z" stroke-linecap="round" />
</g>
<g transform="matrix(1 0 0 1 337.21 399.15)"  >
<path style="stroke: none; stroke-width: 0; stroke-dasharray: 1 10; stroke-linecap: butt; stroke-dashoffset: 0; stroke-linejoin: miter; stroke-miterlimit: 4; fill: rgb(255,255,255); fill-rule: nonzero; opacity: 1;" vector-effect="non-scaling-stroke"  transform=" translate(-235.72, -382.65)" d="M 231.46 383.82 v -6.32 h 2.36 v 6.01 c 0 1.66 0.48 2.28 1.57 2.28 c 0.89 0 1.47 -0.41 2.23 -1.39 v -6.9 h 2.36 v 10.07 h -1.94 l -0.18 -1.49 h -0.07 c -0.89 1.05 -1.86 1.73 -3.24 1.73 c -2.16 0 -3.1 -1.46 -3.1 -4 Z" stroke-linecap="round" />
</g>
<g transform="matrix(1 0 0 1 348.07 399.03)"  >
<path style="stroke: none; stroke-width: 0; stroke-dasharray: 1 10; stroke-linecap: butt; stroke-dashoffset: 0; stroke-linejoin: miter; stroke-miterlimit: 4; fill: rgb(255,255,255); fill-rule: nonzero; opacity: 1;" vector-effect="non-scaling-stroke"  transform=" translate(-246.57, -382.53)" d="M 242.44 384.87 c 0 -2.16 1.79 -3.28 5.92 -3.72 c -0.03 -1.08 -0.47 -1.99 -1.83 -1.99 c -1 0 -1.94 0.45 -2.83 0.99 l -0.87 -1.58 c 1.11 -0.7 2.54 -1.32 4.13 -1.32 c 2.52 0 3.76 1.55 3.76 4.36 v 5.96 h -1.94 l -0.18 -1.12 h -0.07 c -0.9 0.77 -1.94 1.36 -3.12 1.36 c -1.76 0 -2.98 -1.2 -2.98 -2.95 Z m 5.92 0 v -2.26 c -2.73 0.34 -3.64 1.06 -3.64 2.08 c 0 0.89 0.61 1.28 1.45 1.28 s 1.44 -0.4 2.19 -1.09 Z" stroke-linecap="round" />
</g>
<g transform="matrix(1 0 0 1 358.15 398.92)"  >
<path style="stroke: none; stroke-width: 0; stroke-dasharray: 1 10; stroke-linecap: butt; stroke-dashoffset: 0; stroke-linejoin: miter; stroke-miterlimit: 4; fill: rgb(255,255,255); fill-rule: nonzero; opacity: 1;" vector-effect="non-scaling-stroke"  transform=" translate(-256.65, -382.42)" d="M 253.56 377.5 h 1.94 l 0.18 1.8 h 0.07 c 0.72 -1.31 1.78 -2.04 2.86 -2.04 c 0.51 0 0.84 0.07 1.14 0.21 l -0.41 2.05 c -0.35 -0.1 -0.62 -0.16 -1.03 -0.16 c -0.8 0 -1.77 0.55 -2.38 2.08 v 6.14 h -2.36 v -10.07 Z" stroke-linecap="round" />
</g>
<g transform="matrix(1 0 0 1 317.31 304.37)"  >
<rect style="stroke: rgb(229,231,235); stroke-width: 0; stroke-dasharray: 1 10; stroke-linecap: butt; stroke-dashoffset: 0; stroke-linejoin: miter; stroke-miterlimit: 4; fill: none; fill-rule: nonzero; opacity: 1;" vector-effect="non-scaling-stroke"  x="-173.25" y="-21.905" rx="9.96" ry="9.96" width="346.5" height="43.81" />
</g>
<g transform="matrix(1 0 0 1 151.19 265.81)"  >
<path style="stroke: none; stroke-width: 0; stroke-dasharray: 1 10; stroke-linecap: butt; stroke-dashoffset: 0; stroke-linejoin: miter; stroke-miterlimit: 4; fill: rgb(163,165,168); fill-rule: nonzero; opacity: 1;" vector-effect="non-scaling-stroke"  transform=" translate(-49.69, -249.31)" d="M 44.56 249.36 c 0 -4.39 2.75 -7 6.14 -7 c 1.68 0 3.02 0.8 3.86 1.7 l -1.27 1.53 c -0.69 -0.69 -1.49 -1.16 -2.54 -1.16 c -2.18 0 -3.75 1.85 -3.75 4.86 s 1.44 4.91 3.69 4.91 c 1.19 0 2.11 -0.55 2.86 -1.38 l 1.27 1.49 c -1.09 1.26 -2.49 1.95 -4.22 1.95 c -3.37 0 -6.05 -2.47 -6.05 -6.91 Z" stroke-linecap="round" />
</g>
<g transform="matrix(1 0 0 1 162.5 267.49)"  >
<path style="stroke: none; stroke-width: 0; stroke-dasharray: 1 10; stroke-linecap: butt; stroke-dashoffset: 0; stroke-linejoin: miter; stroke-miterlimit: 4; fill: rgb(163,165,168); fill-rule: nonzero; opacity: 1;" vector-effect="non-scaling-stroke"  transform=" translate(-61, -250.99)" d="M 56.21 251 c 0 -3.36 2.28 -5.29 4.79 -5.29 s 4.79 1.94 4.79 5.29 s -2.28 5.27 -4.79 5.27 s -4.79 -1.94 -4.79 -5.27 Z m 7.15 0 c 0 -2.02 -0.89 -3.36 -2.36 -3.36 s -2.36 1.34 -2.36 3.36 s 0.89 3.35 2.36 3.35 s 2.36 -1.33 2.36 -3.35 Z" stroke-linecap="round" />
</g>
<g transform="matrix(1 0 0 1 173.94 267.37)"  >
<path style="stroke: none; stroke-width: 0; stroke-dasharray: 1 10; stroke-linecap: butt; stroke-dashoffset: 0; stroke-linejoin: miter; stroke-miterlimit: 4; fill: rgb(163,165,168); fill-rule: nonzero; opacity: 1;" vector-effect="non-scaling-stroke"  transform=" translate(-72.44, -250.86)" d="M 68.14 245.95 h 1.94 l 0.18 1.36 h 0.07 c 0.9 -0.88 1.93 -1.61 3.31 -1.61 c 2.16 0 3.1 1.46 3.1 4 v 6.32 h -2.36 v -6.01 c 0 -1.66 -0.48 -2.28 -1.57 -2.28 c -0.89 0 -1.47 0.44 -2.3 1.26 v 7.04 h -2.36 v -10.07 Z" stroke-linecap="round" />
</g>
<g transform="matrix(1 0 0 1 183.38 266.24)"  >
<path style="stroke: none; stroke-width: 0; stroke-dasharray: 1 10; stroke-linecap: butt; stroke-dashoffset: 0; stroke-linejoin: miter; stroke-miterlimit: 4; fill: rgb(163,165,168); fill-rule: nonzero; opacity: 1;" vector-effect="non-scaling-stroke"  transform=" translate(-81.88, -249.73)" d="M 79.98 252.63 v -4.8 h -1.44 v -1.77 l 1.56 -0.11 l 0.28 -2.75 h 1.96 v 2.75 h 2.57 v 1.88 h -2.57 v 4.79 c 0 1.19 0.46 1.77 1.43 1.77 c 0.34 0 0.75 -0.11 1.05 -0.23 l 0.4 1.74 c -0.55 0.18 -1.25 0.37 -2.06 0.37 c -2.32 0 -3.18 -1.47 -3.18 -3.64 Z" stroke-linecap="round" />
</g>
<g transform="matrix(1 0 0 1 191.63 267.37)"  >
<path style="stroke: none; stroke-width: 0; stroke-dasharray: 1 10; stroke-linecap: butt; stroke-dashoffset: 0; stroke-linejoin: miter; stroke-miterlimit: 4; fill: rgb(163,165,168); fill-rule: nonzero; opacity: 1;" vector-effect="non-scaling-stroke"  transform=" translate(-90.13, -250.87)" d="M 87.03 245.95 h 1.94 l 0.18 1.8 h 0.07 c 0.72 -1.31 1.78 -2.04 2.86 -2.04 c 0.51 0 0.84 0.07 1.14 0.21 l -0.41 2.05 c -0.35 -0.1 -0.62 -0.16 -1.03 -0.16 c -0.8 0 -1.77 0.55 -2.38 2.08 v 6.14 h -2.36 v -10.07 Z" stroke-linecap="round" />
</g>
<g transform="matrix(1 0 0 1 199.24 267.48)"  >
<path style="stroke: none; stroke-width: 0; stroke-dasharray: 1 10; stroke-linecap: butt; stroke-dashoffset: 0; stroke-linejoin: miter; stroke-miterlimit: 4; fill: rgb(163,165,168); fill-rule: nonzero; opacity: 1;" vector-effect="non-scaling-stroke"  transform=" translate(-97.73, -250.98)" d="M 93.6 253.32 c 0 -2.16 1.79 -3.28 5.92 -3.72 c -0.03 -1.08 -0.47 -1.99 -1.83 -1.99 c -1 0 -1.94 0.45 -2.83 0.99 l -0.87 -1.58 c 1.11 -0.7 2.54 -1.32 4.13 -1.32 c 2.52 0 3.76 1.55 3.76 4.36 v 5.96 h -1.94 l -0.18 -1.12 h -0.07 c -0.9 0.77 -1.94 1.36 -3.12 1.36 c -1.76 0 -2.98 -1.2 -2.98 -2.95 Z m 5.92 0 v -2.26 c -2.73 0.34 -3.64 1.06 -3.64 2.08 c 0 0.89 0.61 1.28 1.45 1.28 s 1.44 -0.4 2.19 -1.09 Z" stroke-linecap="round" />
</g>
<g transform="matrix(1 0 0 1 209.1 267.49)"  >
<path style="stroke: none; stroke-width: 0; stroke-dasharray: 1 10; stroke-linecap: butt; stroke-dashoffset: 0; stroke-linejoin: miter; stroke-miterlimit: 4; fill: rgb(163,165,168); fill-rule: nonzero; opacity: 1;" vector-effect="non-scaling-stroke"  transform=" translate(-107.6, -250.99)" d="M 103.73 254.87 l 1.1 -1.5 c 0.89 0.7 1.76 1.12 2.78 1.12 c 1.1 0 1.62 -0.52 1.62 -1.21 c 0 -0.84 -1.09 -1.22 -2.17 -1.63 c -1.32 -0.5 -2.83 -1.26 -2.83 -2.94 s 1.41 -3.01 3.67 -3.01 c 1.4 0 2.53 0.57 3.35 1.21 l -1.08 1.45 c -0.71 -0.52 -1.42 -0.88 -2.21 -0.88 c -1.01 0 -1.49 0.48 -1.49 1.12 c 0 0.8 1.02 1.1 2.11 1.5 c 1.36 0.51 2.89 1.17 2.89 3.04 c 0 1.73 -1.37 3.13 -3.91 3.13 c -1.38 0 -2.83 -0.59 -3.81 -1.4 Z" stroke-linecap="round" />
</g>
<g transform="matrix(1 0 0 1 218.8 267.5)"  >
<path style="stroke: none; stroke-width: 0; stroke-dasharray: 1 10; stroke-linecap: butt; stroke-dashoffset: 0; stroke-linejoin: miter; stroke-miterlimit: 4; fill: rgb(163,165,168); fill-rule: nonzero; opacity: 1;" vector-effect="non-scaling-stroke"  transform=" translate(-117.3, -251)" d="M 112.9 251 c 0 -3.27 2.27 -5.29 4.64 -5.29 c 2.72 0 4.16 1.97 4.16 4.78 c 0 0.45 -0.05 0.9 -0.1 1.15 h -6.39 c 0.2 1.79 1.35 2.81 2.97 2.81 c 0.86 0 1.6 -0.27 2.34 -0.73 l 0.8 1.47 c -0.96 0.65 -2.17 1.09 -3.45 1.09 c -2.78 0 -4.96 -1.95 -4.96 -5.27 Z m 6.76 -0.97 c 0 -1.55 -0.69 -2.49 -2.07 -2.49 c -1.17 0 -2.21 0.88 -2.41 2.49 h 4.48 Z" stroke-linecap="round" />
</g>
<g transform="matrix(1 0 0 1 229.77 265.04)"  >
<path style="stroke: none; stroke-width: 0; stroke-dasharray: 1 10; stroke-linecap: butt; stroke-dashoffset: 0; stroke-linejoin: miter; stroke-miterlimit: 4; fill: rgb(163,165,168); fill-rule: nonzero; opacity: 1;" vector-effect="non-scaling-stroke"  transform=" translate(-128.27, -248.54)" d="M 123.97 245.95 h 1.94 l 0.18 1.36 h 0.07 c 0.9 -0.88 1.93 -1.61 3.31 -1.61 c 2.16 0 3.1 1.46 3.1 4 v 6.32 h -2.36 v -6.01 c 0 -1.66 -0.48 -2.28 -1.57 -2.28 c -0.89 0 -1.47 0.44 -2.3 1.26 v 7.04 h -2.36 v -10.07 Z m 3.27 -3.23 c -0.51 0 -0.76 0.48 -0.83 1.37 l -1.52 -0.09 c 0.06 -1.86 0.8 -2.94 2.31 -2.94 c 1.36 0 1.99 1.51 2.8 1.51 c 0.5 0 0.75 -0.5 0.82 -1.37 l 1.52 0.09 c -0.06 1.85 -0.8 2.95 -2.31 2.95 c -1.37 0 -2 -1.51 -2.8 -1.51 Z" stroke-linecap="round" />
</g>
<g transform="matrix(1 0 0 1 240.55 267.48)"  >
<path style="stroke: none; stroke-width: 0; stroke-dasharray: 1 10; stroke-linecap: butt; stroke-dashoffset: 0; stroke-linejoin: miter; stroke-miterlimit: 4; fill: rgb(163,165,168); fill-rule: nonzero; opacity: 1;" vector-effect="non-scaling-stroke"  transform=" translate(-139.04, -250.98)" d="M 134.91 253.32 c 0 -2.16 1.79 -3.28 5.92 -3.72 c -0.03 -1.08 -0.47 -1.99 -1.83 -1.99 c -1 0 -1.94 0.45 -2.83 0.99 l -0.87 -1.58 c 1.11 -0.7 2.54 -1.32 4.13 -1.32 c 2.52 0 3.76 1.55 3.76 4.36 v 5.96 h -1.94 l -0.18 -1.12 h -0.07 c -0.9 0.77 -1.94 1.36 -3.12 1.36 c -1.76 0 -2.98 -1.2 -2.98 -2.95 Z m 5.92 0 v -2.26 c -2.73 0.34 -3.64 1.06 -3.64 2.08 c 0 0.89 0.61 1.28 1.45 1.28 s 1.44 -0.4 2.19 -1.09 Z" stroke-linecap="round" />
</g>
<g transform="matrix(1 0 0 1 255.98 265.81)"  >
<path style="stroke: none; stroke-width: 0; stroke-dasharray: 1 10; stroke-linecap: butt; stroke-dashoffset: 0; stroke-linejoin: miter; stroke-miterlimit: 4; fill: rgb(163,165,168); fill-rule: nonzero; opacity: 1;" vector-effect="non-scaling-stroke"  transform=" translate(-154.48, -249.31)" d="M 150.34 242.61 h 8.07 v 2 h -5.69 v 3.44 h 4.82 v 2 h -4.82 v 3.97 h 5.9 v 2 h -8.28 v -13.41 Z" stroke-linecap="round" />
</g>
<g transform="matrix(1 0 0 1 269.88 267.37)"  >
<path style="stroke: none; stroke-width: 0; stroke-dasharray: 1 10; stroke-linecap: butt; stroke-dashoffset: 0; stroke-linejoin: miter; stroke-miterlimit: 4; fill: rgb(163,165,168); fill-rule: nonzero; opacity: 1;" vector-effect="non-scaling-stroke"  transform=" translate(-168.38, -250.87)" d="M 161.17 245.95 h 1.94 l 0.18 1.37 h 0.07 c 0.85 -0.89 1.83 -1.62 3.09 -1.62 c 1.48 0 2.32 0.67 2.78 1.8 c 0.96 -1.03 1.96 -1.8 3.24 -1.8 c 2.12 0 3.11 1.46 3.11 4 v 6.32 h -2.36 v -6.01 c 0 -1.66 -0.49 -2.28 -1.55 -2.28 c -0.64 0 -1.33 0.41 -2.11 1.26 v 7.04 h -2.36 v -6.01 c 0 -1.66 -0.49 -2.28 -1.55 -2.28 c -0.62 0 -1.33 0.41 -2.11 1.26 v 7.04 h -2.36 v -10.07 Z" stroke-linecap="round" />
</g>
<g transform="matrix(1 0 0 1 283.56 267.48)"  >
<path style="stroke: none; stroke-width: 0; stroke-dasharray: 1 10; stroke-linecap: butt; stroke-dashoffset: 0; stroke-linejoin: miter; stroke-miterlimit: 4; fill: rgb(163,165,168); fill-rule: nonzero; opacity: 1;" vector-effect="non-scaling-stroke"  transform=" translate(-182.05, -250.98)" d="M 177.92 253.32 c 0 -2.16 1.79 -3.28 5.92 -3.72 c -0.03 -1.08 -0.47 -1.99 -1.83 -1.99 c -1 0 -1.94 0.45 -2.83 0.99 l -0.87 -1.58 c 1.11 -0.7 2.54 -1.32 4.13 -1.32 c 2.52 0 3.76 1.55 3.76 4.36 v 5.96 h -1.94 l -0.18 -1.12 h -0.07 c -0.9 0.77 -1.94 1.36 -3.12 1.36 c -1.76 0 -2.98 -1.2 -2.98 -2.95 Z m 5.92 0 v -2.26 c -2.73 0.34 -3.64 1.06 -3.64 2.08 c 0 0.89 0.61 1.28 1.45 1.28 s 1.44 -0.4 2.19 -1.09 Z" stroke-linecap="round" />
</g>
<g transform="matrix(1 0 0 1 291.74 265.26)"  >
<path style="stroke: none; stroke-width: 0; stroke-dasharray: 1 10; stroke-linecap: butt; stroke-dashoffset: 0; stroke-linejoin: miter; stroke-miterlimit: 4; fill: rgb(163,165,168); fill-rule: nonzero; opacity: 1;" vector-effect="non-scaling-stroke"  transform=" translate(-190.24, -248.76)" d="M 188.78 242.85 c 0 -0.79 0.62 -1.34 1.46 -1.34 s 1.46 0.54 1.46 1.34 s -0.62 1.34 -1.46 1.34 s -1.46 -0.56 -1.46 -1.34 Z m 0.27 3.1 h 2.36 v 10.07 h -2.36 v -10.07 Z" stroke-linecap="round" />
</g>
<g transform="matrix(1 0 0 1 297.69 265.41)"  >
<path style="stroke: none; stroke-width: 0; stroke-dasharray: 1 10; stroke-linecap: butt; stroke-dashoffset: 0; stroke-linejoin: miter; stroke-miterlimit: 4; fill: rgb(163,165,168); fill-rule: nonzero; opacity: 1;" vector-effect="non-scaling-stroke"  transform=" translate(-196.19, -248.91)" d="M 194.42 253.43 v -11.89 h 2.36 v 12.02 c 0 0.58 0.26 0.79 0.51 0.79 c 0.11 0 0.19 0 0.37 -0.04 l 0.3 1.76 c -0.29 0.11 -0.68 0.21 -1.25 0.21 c -1.67 0 -2.29 -1.08 -2.29 -2.84 Z" stroke-linecap="round" />
</g>
<g transform="matrix(1 0 0 1 214.6 125.42)"  >
<path style="stroke: none; stroke-width: 0; stroke-dasharray: 1 10; stroke-linecap: butt; stroke-dashoffset: 0; stroke-linejoin: miter; stroke-miterlimit: 4; fill: rgb(79,80,81); fill-rule: nonzero; opacity: 1;" vector-effect="non-scaling-stroke"  transform=" translate(-113.1, -108.92)" d="M 110.17 105.01 h 1.43 l 2.44 4.41 l 0.81 1.67 h 0.05 c -0.07 -0.81 -0.18 -1.8 -0.18 -2.68 v -3.41 h 1.32 v 7.84 h -1.43 l -2.44 -4.42 l -0.81 -1.67 h -0.05 c 0.07 0.83 0.18 1.77 0.18 2.65 v 3.44 h -1.32 v -7.84 Z" stroke-linecap="round" />
</g>
<g transform="matrix(1 0 0 1 221.61 126.41)"  >
<path style="stroke: none; stroke-width: 0; stroke-dasharray: 1 10; stroke-linecap: butt; stroke-dashoffset: 0; stroke-linejoin: miter; stroke-miterlimit: 4; fill: rgb(79,80,81); fill-rule: nonzero; opacity: 1;" vector-effect="non-scaling-stroke"  transform=" translate(-120.11, -109.91)" d="M 117.53 109.91 c 0 -1.91 1.33 -3.09 2.72 -3.09 c 1.59 0 2.43 1.15 2.43 2.8 c 0 0.26 -0.03 0.53 -0.06 0.67 h -3.74 c 0.12 1.05 0.79 1.64 1.74 1.64 c 0.5 0 0.94 -0.16 1.37 -0.43 l 0.47 0.86 c -0.56 0.38 -1.27 0.64 -2.02 0.64 c -1.63 0 -2.9 -1.14 -2.9 -3.08 Z m 3.95 -0.57 c 0 -0.91 -0.4 -1.46 -1.21 -1.46 c -0.69 0 -1.29 0.51 -1.41 1.46 h 2.62 Z" stroke-linecap="round" />
</g>
<g transform="matrix(1 0 0 1 227.49 126.41)"  >
<path style="stroke: none; stroke-width: 0; stroke-dasharray: 1 10; stroke-linecap: butt; stroke-dashoffset: 0; stroke-linejoin: miter; stroke-miterlimit: 4; fill: rgb(79,80,81); fill-rule: nonzero; opacity: 1;" vector-effect="non-scaling-stroke"  transform=" translate(-125.99, -109.91)" d="M 123.61 109.91 c 0 -1.96 1.39 -3.09 2.96 -3.09 c 0.75 0 1.3 0.29 1.72 0.66 l -0.67 0.9 c -0.31 -0.27 -0.61 -0.43 -0.98 -0.43 c -0.95 0 -1.61 0.79 -1.61 1.97 s 0.65 1.96 1.56 1.96 c 0.46 0 0.88 -0.23 1.22 -0.51 l 0.56 0.91 c -0.55 0.49 -1.25 0.72 -1.92 0.72 c -1.61 0 -2.84 -1.13 -2.84 -3.08 Z" stroke-linecap="round" />
</g>
<g transform="matrix(1 0 0 1 232.94 126.41)"  >
<path style="stroke: none; stroke-width: 0; stroke-dasharray: 1 10; stroke-linecap: butt; stroke-dashoffset: 0; stroke-linejoin: miter; stroke-miterlimit: 4; fill: rgb(79,80,81); fill-rule: nonzero; opacity: 1;" vector-effect="non-scaling-stroke"  transform=" translate(-131.44, -109.91)" d="M 128.87 109.91 c 0 -1.91 1.33 -3.09 2.72 -3.09 c 1.59 0 2.43 1.15 2.43 2.8 c 0 0.26 -0.03 0.53 -0.06 0.67 h -3.74 c 0.12 1.05 0.79 1.64 1.74 1.64 c 0.5 0 0.94 -0.16 1.37 -0.43 l 0.47 0.86 c -0.56 0.38 -1.27 0.64 -2.02 0.64 c -1.63 0 -2.9 -1.14 -2.9 -3.08 Z m 3.95 -0.57 c 0 -0.91 -0.4 -1.46 -1.21 -1.46 c -0.69 0 -1.29 0.51 -1.41 1.46 h 2.62 Z" stroke-linecap="round" />
</g>
<g transform="matrix(1 0 0 1 238.52 126.41)"  >
<path style="stroke: none; stroke-width: 0; stroke-dasharray: 1 10; stroke-linecap: butt; stroke-dashoffset: 0; stroke-linejoin: miter; stroke-miterlimit: 4; fill: rgb(79,80,81); fill-rule: nonzero; opacity: 1;" vector-effect="non-scaling-stroke"  transform=" translate(-137.02, -109.91)" d="M 134.76 112.17 l 0.64 -0.88 c 0.52 0.41 1.03 0.66 1.63 0.66 c 0.64 0 0.95 -0.3 0.95 -0.71 c 0 -0.49 -0.64 -0.71 -1.27 -0.95 c -0.77 -0.29 -1.66 -0.73 -1.66 -1.72 s 0.83 -1.76 2.14 -1.76 c 0.82 0 1.48 0.33 1.96 0.71 l -0.63 0.85 c -0.41 -0.3 -0.83 -0.51 -1.29 -0.51 c -0.59 0 -0.87 0.28 -0.87 0.65 c 0 0.47 0.59 0.64 1.23 0.88 c 0.8 0.3 1.69 0.68 1.69 1.78 c 0 1.01 -0.8 1.83 -2.29 1.83 c -0.81 0 -1.66 -0.35 -2.23 -0.82 Z" stroke-linecap="round" />
</g>
<g transform="matrix(1 0 0 1 242.71 125.11)"  >
<path style="stroke: none; stroke-width: 0; stroke-dasharray: 1 10; stroke-linecap: butt; stroke-dashoffset: 0; stroke-linejoin: miter; stroke-miterlimit: 4; fill: rgb(79,80,81); fill-rule: nonzero; opacity: 1;" vector-effect="non-scaling-stroke"  transform=" translate(-141.21, -108.61)" d="M 140.36 105.15 c 0 -0.47 0.36 -0.78 0.85 -0.78 s 0.85 0.32 0.85 0.78 s -0.37 0.78 -0.85 0.78 s -0.85 -0.33 -0.85 -0.78 Z m 0.16 1.81 h 1.38 v 5.89 h -1.38 v -5.89 Z" stroke-linecap="round" />
</g>
<g transform="matrix(1 0 0 1 246.46 125.66)"  >
<path style="stroke: none; stroke-width: 0; stroke-dasharray: 1 10; stroke-linecap: butt; stroke-dashoffset: 0; stroke-linejoin: miter; stroke-miterlimit: 4; fill: rgb(79,80,81); fill-rule: nonzero; opacity: 1;" vector-effect="non-scaling-stroke"  transform=" translate(-144.97, -109.16)" d="M 143.86 110.86 v -2.81 h -0.84 v -1.04 l 0.91 -0.06 l 0.16 -1.61 h 1.15 v 1.61 h 1.5 v 1.1 h -1.5 v 2.8 c 0 0.69 0.27 1.03 0.83 1.03 c 0.2 0 0.44 -0.07 0.61 -0.13 l 0.23 1.02 c -0.32 0.11 -0.73 0.22 -1.2 0.22 c -1.36 0 -1.86 -0.86 -1.86 -2.13 Z" stroke-linecap="round" />
</g>
<g transform="matrix(1 0 0 1 251.34 126.41)"  >
<path style="stroke: none; stroke-width: 0; stroke-dasharray: 1 10; stroke-linecap: butt; stroke-dashoffset: 0; stroke-linejoin: miter; stroke-miterlimit: 4; fill: rgb(79,80,81); fill-rule: nonzero; opacity: 1;" vector-effect="non-scaling-stroke"  transform=" translate(-149.83, -109.91)" d="M 147.42 111.27 c 0 -1.26 1.05 -1.92 3.46 -2.18 c -0.02 -0.63 -0.27 -1.16 -1.07 -1.16 c -0.58 0 -1.14 0.26 -1.66 0.58 l -0.51 -0.92 c 0.65 -0.41 1.48 -0.77 2.42 -0.77 c 1.47 0 2.2 0.91 2.2 2.55 v 3.49 h -1.13 l -0.11 -0.65 h -0.04 c -0.53 0.45 -1.13 0.8 -1.83 0.8 c -1.03 0 -1.74 -0.7 -1.74 -1.73 Z m 3.46 0 v -1.32 c -1.6 0.2 -2.13 0.62 -2.13 1.21 c 0 0.52 0.36 0.75 0.85 0.75 s 0.84 -0.23 1.28 -0.64 Z" stroke-linecap="round" />
</g>
<g transform="matrix(1 0 0 1 259.64 126.33)"  >
<path style="stroke: none; stroke-width: 0; stroke-dasharray: 1 10; stroke-linecap: butt; stroke-dashoffset: 0; stroke-linejoin: miter; stroke-miterlimit: 4; fill: rgb(79,80,81); fill-rule: nonzero; opacity: 1;" vector-effect="non-scaling-stroke"  transform=" translate(-158.14, -109.83)" d="M 153.93 106.96 h 1.13 l 0.11 0.8 h 0.04 c 0.5 -0.52 1.07 -0.95 1.81 -0.95 c 0.86 0 1.36 0.39 1.63 1.06 c 0.56 -0.6 1.15 -1.06 1.89 -1.06 c 1.24 0 1.82 0.85 1.82 2.34 v 3.69 h -1.38 v -3.52 c 0 -0.97 -0.29 -1.33 -0.91 -1.33 c -0.37 0 -0.78 0.24 -1.23 0.73 v 4.12 h -1.38 v -3.52 c 0 -0.97 -0.29 -1.33 -0.91 -1.33 c -0.36 0 -0.78 0.24 -1.23 0.73 v 4.12 h -1.38 v -5.89 Z" stroke-linecap="round" />
</g>
<g transform="matrix(1 0 0 1 267.96 126.41)"  >
<path style="stroke: none; stroke-width: 0; stroke-dasharray: 1 10; stroke-linecap: butt; stroke-dashoffset: 0; stroke-linejoin: miter; stroke-miterlimit: 4; fill: rgb(79,80,81); fill-rule: nonzero; opacity: 1;" vector-effect="non-scaling-stroke"  transform=" translate(-166.46, -109.91)" d="M 163.66 109.91 c 0 -1.96 1.33 -3.09 2.8 -3.09 s 2.8 1.13 2.8 3.09 s -1.33 3.08 -2.8 3.08 s -2.8 -1.13 -2.8 -3.08 Z m 4.18 0 c 0 -1.18 -0.52 -1.97 -1.38 -1.97 s -1.38 0.79 -1.38 1.97 s 0.52 1.96 1.38 1.96 s 1.38 -0.78 1.38 -1.96 Z" stroke-linecap="round" />
</g>
<g transform="matrix(1 0 0 1 273.76 126.41)"  >
<path style="stroke: none; stroke-width: 0; stroke-dasharray: 1 10; stroke-linecap: butt; stroke-dashoffset: 0; stroke-linejoin: miter; stroke-miterlimit: 4; fill: rgb(79,80,81); fill-rule: nonzero; opacity: 1;" vector-effect="non-scaling-stroke"  transform=" translate(-172.26, -109.91)" d="M 170 112.17 l 0.64 -0.88 c 0.52 0.41 1.03 0.66 1.63 0.66 c 0.64 0 0.95 -0.3 0.95 -0.71 c 0 -0.49 -0.64 -0.71 -1.27 -0.95 c -0.77 -0.29 -1.66 -0.73 -1.66 -1.72 s 0.83 -1.76 2.14 -1.76 c 0.82 0 1.48 0.33 1.96 0.71 l -0.63 0.85 c -0.41 -0.3 -0.83 -0.51 -1.29 -0.51 c -0.59 0 -0.87 0.28 -0.87 0.65 c 0 0.47 0.59 0.64 1.23 0.88 c 0.8 0.3 1.69 0.68 1.69 1.78 c 0 1.01 -0.8 1.83 -2.29 1.83 c -0.81 0 -1.66 -0.35 -2.23 -0.82 Z" stroke-linecap="round" />
</g>
<g transform="matrix(1 0 0 1 281.75 126.41)"  >
<path style="stroke: none; stroke-width: 0; stroke-dasharray: 1 10; stroke-linecap: butt; stroke-dashoffset: 0; stroke-linejoin: miter; stroke-miterlimit: 4; fill: rgb(79,80,81); fill-rule: nonzero; opacity: 1;" vector-effect="non-scaling-stroke"  transform=" translate(-180.25, -109.91)" d="M 177.42 106.96 h 1.4 l 0.94 3.06 c 0.16 0.58 0.34 1.19 0.5 1.78 h 0.05 c 0.16 -0.59 0.34 -1.19 0.5 -1.78 l 0.94 -3.06 h 1.33 l -2 5.89 h -1.6 l -2.05 -5.89 Z" stroke-linecap="round" />
</g>
<g transform="matrix(1 0 0 1 287.72 126.41)"  >
<path style="stroke: none; stroke-width: 0; stroke-dasharray: 1 10; stroke-linecap: butt; stroke-dashoffset: 0; stroke-linejoin: miter; stroke-miterlimit: 4; fill: rgb(79,80,81); fill-rule: nonzero; opacity: 1;" vector-effect="non-scaling-stroke"  transform=" translate(-186.21, -109.91)" d="M 183.64 109.91 c 0 -1.91 1.33 -3.09 2.72 -3.09 c 1.59 0 2.43 1.15 2.43 2.8 c 0 0.26 -0.03 0.53 -0.06 0.67 h -3.74 c 0.12 1.05 0.79 1.64 1.74 1.64 c 0.5 0 0.94 -0.16 1.37 -0.43 l 0.47 0.86 c -0.56 0.38 -1.27 0.64 -2.02 0.64 c -1.63 0 -2.9 -1.14 -2.9 -3.08 Z m 3.95 -0.57 c 0 -0.91 -0.4 -1.46 -1.21 -1.46 c -0.69 0 -1.29 0.51 -1.41 1.46 h 2.62 Z" stroke-linecap="round" />
</g>
<g transform="matrix(1 0 0 1 293.42 126.34)"  >
<path style="stroke: none; stroke-width: 0; stroke-dasharray: 1 10; stroke-linecap: butt; stroke-dashoffset: 0; stroke-linejoin: miter; stroke-miterlimit: 4; fill: rgb(79,80,81); fill-rule: nonzero; opacity: 1;" vector-effect="non-scaling-stroke"  transform=" translate(-191.92, -109.84)" d="M 190.11 106.96 h 1.13 l 0.11 1.05 h 0.04 c 0.42 -0.77 1.04 -1.19 1.67 -1.19 c 0.3 0 0.49 0.04 0.67 0.12 l -0.24 1.2 c -0.21 -0.06 -0.36 -0.1 -0.6 -0.1 c -0.47 0 -1.04 0.32 -1.39 1.22 v 3.59 h -1.38 v -5.89 Z" stroke-linecap="round" />
</g>
<g transform="matrix(1 0 0 1 296.78 125.11)"  >
<path style="stroke: none; stroke-width: 0; stroke-dasharray: 1 10; stroke-linecap: butt; stroke-dashoffset: 0; stroke-linejoin: miter; stroke-miterlimit: 4; fill: rgb(79,80,81); fill-rule: nonzero; opacity: 1;" vector-effect="non-scaling-stroke"  transform=" translate(-195.28, -108.61)" d="M 194.43 105.15 c 0 -0.47 0.36 -0.78 0.85 -0.78 s 0.85 0.32 0.85 0.78 s -0.37 0.78 -0.85 0.78 s -0.85 -0.33 -0.85 -0.78 Z m 0.16 1.81 h 1.38 v 5.89 h -1.38 v -5.89 Z" stroke-linecap="round" />
</g>
<g transform="matrix(1 0 0 1 300.58 125.04)"  >
<path style="stroke: none; stroke-width: 0; stroke-dasharray: 1 10; stroke-linecap: butt; stroke-dashoffset: 0; stroke-linejoin: miter; stroke-miterlimit: 4; fill: rgb(79,80,81); fill-rule: nonzero; opacity: 1;" vector-effect="non-scaling-stroke"  transform=" translate(-199.08, -108.53)" d="M 197.17 107.02 l 0.86 -0.06 h 2.46 v 1.1 h -3.32 v -1.04 Z m 0.79 -0.67 c 0 -1.22 0.56 -2.12 1.95 -2.12 c 0.43 0 0.82 0.1 1.08 0.21 l -0.26 1.03 c -0.21 -0.09 -0.44 -0.14 -0.64 -0.14 c -0.49 0 -0.75 0.31 -0.75 0.99 v 6.52 h -1.38 v -6.5 Z" stroke-linecap="round" />
</g>
<g transform="matrix(1 0 0 1 303.73 125.11)"  >
<path style="stroke: none; stroke-width: 0; stroke-dasharray: 1 10; stroke-linecap: butt; stroke-dashoffset: 0; stroke-linejoin: miter; stroke-miterlimit: 4; fill: rgb(79,80,81); fill-rule: nonzero; opacity: 1;" vector-effect="non-scaling-stroke"  transform=" translate(-202.23, -108.61)" d="M 201.38 105.15 c 0 -0.47 0.36 -0.78 0.85 -0.78 s 0.85 0.32 0.85 0.78 s -0.37 0.78 -0.85 0.78 s -0.85 -0.33 -0.85 -0.78 Z m 0.16 1.81 h 1.38 v 5.89 h -1.38 v -5.89 Z" stroke-linecap="round" />
</g>
<g transform="matrix(1 0 0 1 308.17 126.41)"  >
<path style="stroke: none; stroke-width: 0; stroke-dasharray: 1 10; stroke-linecap: butt; stroke-dashoffset: 0; stroke-linejoin: miter; stroke-miterlimit: 4; fill: rgb(79,80,81); fill-rule: nonzero; opacity: 1;" vector-effect="non-scaling-stroke"  transform=" translate(-206.67, -109.91)" d="M 204.29 109.91 c 0 -1.96 1.39 -3.09 2.96 -3.09 c 0.75 0 1.3 0.29 1.72 0.66 l -0.67 0.9 c -0.31 -0.27 -0.61 -0.43 -0.98 -0.43 c -0.95 0 -1.61 0.79 -1.61 1.97 s 0.65 1.96 1.56 1.96 c 0.46 0 0.88 -0.23 1.22 -0.51 l 0.56 0.91 c -0.55 0.49 -1.25 0.72 -1.92 0.72 c -1.61 0 -2.84 -1.13 -2.84 -3.08 Z" stroke-linecap="round" />
</g>
<g transform="matrix(1 0 0 1 313.7 126.41)"  >
<path style="stroke: none; stroke-width: 0; stroke-dasharray: 1 10; stroke-linecap: butt; stroke-dashoffset: 0; stroke-linejoin: miter; stroke-miterlimit: 4; fill: rgb(79,80,81); fill-rule: nonzero; opacity: 1;" vector-effect="non-scaling-stroke"  transform=" translate(-212.2, -109.91)" d="M 209.79 111.27 c 0 -1.26 1.05 -1.92 3.46 -2.18 c -0.02 -0.63 -0.27 -1.16 -1.07 -1.16 c -0.58 0 -1.14 0.26 -1.66 0.58 l -0.51 -0.92 c 0.65 -0.41 1.48 -0.77 2.42 -0.77 c 1.47 0 2.2 0.91 2.2 2.55 v 3.49 h -1.13 l -0.11 -0.65 h -0.04 c -0.53 0.45 -1.13 0.8 -1.83 0.8 c -1.03 0 -1.74 -0.7 -1.74 -1.73 Z m 3.46 0 v -1.32 c -1.6 0.2 -2.13 0.62 -2.13 1.21 c 0 0.52 0.36 0.75 0.85 0.75 s 0.84 -0.23 1.28 -0.64 Z" stroke-linecap="round" />
</g>
<g transform="matrix(1 0 0 1 319.6 126.34)"  >
<path style="stroke: none; stroke-width: 0; stroke-dasharray: 1 10; stroke-linecap: butt; stroke-dashoffset: 0; stroke-linejoin: miter; stroke-miterlimit: 4; fill: rgb(79,80,81); fill-rule: nonzero; opacity: 1;" vector-effect="non-scaling-stroke"  transform=" translate(-218.1, -109.84)" d="M 216.29 106.96 h 1.13 l 0.11 1.05 h 0.04 c 0.42 -0.77 1.04 -1.19 1.67 -1.19 c 0.3 0 0.49 0.04 0.67 0.12 l -0.24 1.2 c -0.21 -0.06 -0.36 -0.1 -0.6 -0.1 c -0.47 0 -1.04 0.32 -1.39 1.22 v 3.59 h -1.38 v -5.89 Z" stroke-linecap="round" />
</g>
<g transform="matrix(1 0 0 1 325.7 125.18)"  >
<path style="stroke: none; stroke-width: 0; stroke-dasharray: 1 10; stroke-linecap: butt; stroke-dashoffset: 0; stroke-linejoin: miter; stroke-miterlimit: 4; fill: rgb(79,80,81); fill-rule: nonzero; opacity: 1;" vector-effect="non-scaling-stroke"  transform=" translate(-224.2, -108.68)" d="M 223.17 111.33 v -6.96 h 1.38 v 7.03 c 0 0.34 0.15 0.46 0.3 0.46 c 0.06 0 0.11 0 0.22 -0.02 l 0.17 1.03 c -0.17 0.07 -0.4 0.12 -0.73 0.12 c -0.98 0 -1.34 -0.63 -1.34 -1.66 Z" stroke-linecap="round" />
</g>
<g transform="matrix(1 0 0 1 330.33 126.41)"  >
<path style="stroke: none; stroke-width: 0; stroke-dasharray: 1 10; stroke-linecap: butt; stroke-dashoffset: 0; stroke-linejoin: miter; stroke-miterlimit: 4; fill: rgb(79,80,81); fill-rule: nonzero; opacity: 1;" vector-effect="non-scaling-stroke"  transform=" translate(-228.83, -109.91)" d="M 226.03 109.91 c 0 -1.96 1.33 -3.09 2.8 -3.09 s 2.8 1.13 2.8 3.09 s -1.33 3.08 -2.8 3.08 s -2.8 -1.13 -2.8 -3.08 Z m 4.18 0 c 0 -1.18 -0.52 -1.97 -1.38 -1.97 s -1.38 0.79 -1.38 1.97 s 0.52 1.96 1.38 1.96 s 1.38 -0.78 1.38 -1.96 Z" stroke-linecap="round" />
</g>
<g transform="matrix(1 0 0 1 336.14 126.41)"  >
<path style="stroke: none; stroke-width: 0; stroke-dasharray: 1 10; stroke-linecap: butt; stroke-dashoffset: 0; stroke-linejoin: miter; stroke-miterlimit: 4; fill: rgb(79,80,81); fill-rule: nonzero; opacity: 1;" vector-effect="non-scaling-stroke"  transform=" translate(-234.64, -109.91)" d="M 232.38 112.17 l 0.64 -0.88 c 0.52 0.41 1.03 0.66 1.63 0.66 c 0.64 0 0.95 -0.3 0.95 -0.71 c 0 -0.49 -0.64 -0.71 -1.27 -0.95 c -0.77 -0.29 -1.66 -0.73 -1.66 -1.72 s 0.83 -1.76 2.14 -1.76 c 0.82 0 1.48 0.33 1.96 0.71 l -0.63 0.85 c -0.41 -0.3 -0.83 -0.51 -1.29 -0.51 c -0.59 0 -0.87 0.28 -0.87 0.65 c 0 0.47 0.59 0.64 1.23 0.88 c 0.8 0.3 1.69 0.68 1.69 1.78 c 0 1.01 -0.8 1.83 -2.29 1.83 c -0.81 0 -1.66 -0.35 -2.23 -0.82 Z" stroke-linecap="round" />
</g>
<g transform="matrix(1 0 0 1 344.34 125.19)"  >
<path style="stroke: none; stroke-width: 0; stroke-dasharray: 1 10; stroke-linecap: butt; stroke-dashoffset: 0; stroke-linejoin: miter; stroke-miterlimit: 4; fill: rgb(79,80,81); fill-rule: nonzero; opacity: 1;" vector-effect="non-scaling-stroke"  transform=" translate(-242.84, -108.69)" d="M 240.17 109.91 c 0 -1.92 1.2 -3.09 2.49 -3.09 c 0.67 0 1.09 0.25 1.54 0.65 l -0.05 -0.95 v -2.13 h 1.38 v 8.47 h -1.13 l -0.11 -0.64 h -0.04 c -0.44 0.44 -1.04 0.78 -1.67 0.78 c -1.47 0 -2.42 -1.14 -2.42 -3.08 Z m 3.99 1.28 v -2.74 c -0.4 -0.36 -0.8 -0.49 -1.2 -0.49 c -0.75 0 -1.37 0.71 -1.37 1.94 s 0.49 1.96 1.34 1.96 c 0.46 0 0.84 -0.2 1.23 -0.66 Z" stroke-linecap="round" />
</g>
<g transform="matrix(1 0 0 1 350.89 126.41)"  >
<path style="stroke: none; stroke-width: 0; stroke-dasharray: 1 10; stroke-linecap: butt; stroke-dashoffset: 0; stroke-linejoin: miter; stroke-miterlimit: 4; fill: rgb(79,80,81); fill-rule: nonzero; opacity: 1;" vector-effect="non-scaling-stroke"  transform=" translate(-249.39, -109.91)" d="M 246.98 111.27 c 0 -1.26 1.05 -1.92 3.46 -2.18 c -0.02 -0.63 -0.27 -1.16 -1.07 -1.16 c -0.58 0 -1.14 0.26 -1.66 0.58 l -0.51 -0.92 c 0.65 -0.41 1.48 -0.77 2.42 -0.77 c 1.47 0 2.2 0.91 2.2 2.55 v 3.49 h -1.13 l -0.11 -0.65 h -0.04 c -0.53 0.45 -1.13 0.8 -1.83 0.8 c -1.03 0 -1.74 -0.7 -1.74 -1.73 Z m 3.46 0 v -1.32 c -1.6 0.2 -2.13 0.62 -2.13 1.21 c 0 0.52 0.36 0.75 0.85 0.75 s 0.84 -0.23 1.28 -0.64 Z" stroke-linecap="round" />
</g>
<g transform="matrix(1 0 0 1 356.12 125.66)"  >
<path style="stroke: none; stroke-width: 0; stroke-dasharray: 1 10; stroke-linecap: butt; stroke-dashoffset: 0; stroke-linejoin: miter; stroke-miterlimit: 4; fill: rgb(79,80,81); fill-rule: nonzero; opacity: 1;" vector-effect="non-scaling-stroke"  transform=" translate(-254.62, -109.16)" d="M 253.51 110.86 v -2.81 h -0.84 v -1.04 l 0.91 -0.06 l 0.16 -1.61 h 1.15 v 1.61 h 1.5 v 1.1 h -1.5 v 2.8 c 0 0.69 0.27 1.03 0.83 1.03 c 0.2 0 0.44 -0.07 0.61 -0.13 l 0.23 1.02 c -0.32 0.11 -0.73 0.22 -1.2 0.22 c -1.36 0 -1.86 -0.86 -1.86 -2.13 Z" stroke-linecap="round" />
</g>
<g transform="matrix(1 0 0 1 361.35 126.41)"  >
<path style="stroke: none; stroke-width: 0; stroke-dasharray: 1 10; stroke-linecap: butt; stroke-dashoffset: 0; stroke-linejoin: miter; stroke-miterlimit: 4; fill: rgb(79,80,81); fill-rule: nonzero; opacity: 1;" vector-effect="non-scaling-stroke"  transform=" translate(-259.85, -109.91)" d="M 257.05 109.91 c 0 -1.96 1.33 -3.09 2.8 -3.09 s 2.8 1.13 2.8 3.09 s -1.33 3.08 -2.8 3.08 s -2.8 -1.13 -2.8 -3.08 Z m 4.18 0 c 0 -1.18 -0.52 -1.97 -1.38 -1.97 s -1.38 0.79 -1.38 1.97 s 0.52 1.96 1.38 1.96 s 1.38 -0.78 1.38 -1.96 Z" stroke-linecap="round" />
</g>
<g transform="matrix(1 0 0 1 367.16 126.41)"  >
<path style="stroke: none; stroke-width: 0; stroke-dasharray: 1 10; stroke-linecap: butt; stroke-dashoffset: 0; stroke-linejoin: miter; stroke-miterlimit: 4; fill: rgb(79,80,81); fill-rule: nonzero; opacity: 1;" vector-effect="non-scaling-stroke"  transform=" translate(-265.66, -109.91)" d="M 263.4 112.17 l 0.64 -0.88 c 0.52 0.41 1.03 0.66 1.63 0.66 c 0.64 0 0.95 -0.3 0.95 -0.71 c 0 -0.49 -0.64 -0.71 -1.27 -0.95 c -0.77 -0.29 -1.66 -0.73 -1.66 -1.72 s 0.83 -1.76 2.14 -1.76 c 0.82 0 1.48 0.33 1.96 0.71 l -0.63 0.85 c -0.41 -0.3 -0.83 -0.51 -1.29 -0.51 c -0.59 0 -0.87 0.28 -0.87 0.65 c 0 0.47 0.59 0.64 1.23 0.88 c 0.8 0.3 1.69 0.68 1.69 1.78 c 0 1.01 -0.8 1.83 -2.29 1.83 c -0.81 0 -1.66 -0.35 -2.23 -0.82 Z" stroke-linecap="round" />
</g>
<g transform="matrix(1 0 0 1 375.37 125.19)"  >
<path style="stroke: none; stroke-width: 0; stroke-dasharray: 1 10; stroke-linecap: butt; stroke-dashoffset: 0; stroke-linejoin: miter; stroke-miterlimit: 4; fill: rgb(79,80,81); fill-rule: nonzero; opacity: 1;" vector-effect="non-scaling-stroke"  transform=" translate(-273.87, -108.69)" d="M 271.19 109.91 c 0 -1.92 1.2 -3.09 2.49 -3.09 c 0.67 0 1.09 0.25 1.54 0.65 l -0.05 -0.95 v -2.13 h 1.38 v 8.47 h -1.13 l -0.11 -0.64 h -0.04 c -0.44 0.44 -1.04 0.78 -1.67 0.78 c -1.47 0 -2.42 -1.14 -2.42 -3.08 Z m 3.99 1.28 v -2.74 c -0.4 -0.36 -0.8 -0.49 -1.2 -0.49 c -0.75 0 -1.37 0.71 -1.37 1.94 s 0.49 1.96 1.34 1.96 c 0.46 0 0.84 -0.2 1.23 -0.66 Z" stroke-linecap="round" />
</g>
<g transform="matrix(1 0 0 1 382 126.41)"  >
<path style="stroke: none; stroke-width: 0; stroke-dasharray: 1 10; stroke-linecap: butt; stroke-dashoffset: 0; stroke-linejoin: miter; stroke-miterlimit: 4; fill: rgb(79,80,81); fill-rule: nonzero; opacity: 1;" vector-effect="non-scaling-stroke"  transform=" translate(-280.5, -109.91)" d="M 277.93 109.91 c 0 -1.91 1.33 -3.09 2.72 -3.09 c 1.59 0 2.43 1.15 2.43 2.8 c 0 0.26 -0.03 0.53 -0.06 0.67 h -3.74 c 0.11 1.05 0.79 1.64 1.74 1.64 c 0.5 0 0.94 -0.16 1.37 -0.43 l 0.47 0.86 c -0.56 0.38 -1.27 0.64 -2.02 0.64 c -1.63 0 -2.9 -1.14 -2.9 -3.08 Z m 3.95 -0.57 c 0 -0.91 -0.4 -1.46 -1.21 -1.46 c -0.69 0 -1.29 0.51 -1.41 1.46 h 2.62 Z" stroke-linecap="round" />
</g>
<g transform="matrix(1 0 0 1 386.94 125.18)"  >
<path style="stroke: none; stroke-width: 0; stroke-dasharray: 1 10; stroke-linecap: butt; stroke-dashoffset: 0; stroke-linejoin: miter; stroke-miterlimit: 4; fill: rgb(79,80,81); fill-rule: nonzero; opacity: 1;" vector-effect="non-scaling-stroke"  transform=" translate(-285.44, -108.68)" d="M 284.4 111.33 v -6.96 h 1.38 v 7.03 c 0 0.34 0.15 0.46 0.3 0.46 c 0.06 0 0.11 0 0.22 -0.02 l 0.17 1.03 c -0.17 0.07 -0.4 0.12 -0.73 0.12 c -0.98 0 -1.34 -0.63 -1.34 -1.66 Z" stroke-linecap="round" />
</g>
<g transform="matrix(1 0 0 1 393.55 126.41)"  >
<path style="stroke: none; stroke-width: 0; stroke-dasharray: 1 10; stroke-linecap: butt; stroke-dashoffset: 0; stroke-linejoin: miter; stroke-miterlimit: 4; fill: rgb(79,80,81); fill-rule: nonzero; opacity: 1;" vector-effect="non-scaling-stroke"  transform=" translate(-292.05, -109.91)" d="M 289.67 109.91 c 0 -1.96 1.39 -3.09 2.96 -3.09 c 0.75 0 1.3 0.29 1.72 0.66 l -0.67 0.9 c -0.31 -0.27 -0.61 -0.43 -0.98 -0.43 c -0.95 0 -1.61 0.79 -1.61 1.97 s 0.65 1.96 1.56 1.96 c 0.46 0 0.88 -0.23 1.22 -0.51 l 0.56 0.91 c -0.55 0.49 -1.25 0.72 -1.92 0.72 c -1.61 0 -2.84 -1.13 -2.84 -3.08 Z" stroke-linecap="round" />
</g>
<g transform="matrix(1 0 0 1 399.22 126.41)"  >
<path style="stroke: none; stroke-width: 0; stroke-dasharray: 1 10; stroke-linecap: butt; stroke-dashoffset: 0; stroke-linejoin: miter; stroke-miterlimit: 4; fill: rgb(79,80,81); fill-rule: nonzero; opacity: 1;" vector-effect="non-scaling-stroke"  transform=" translate(-297.72, -109.91)" d="M 294.92 109.91 c 0 -1.96 1.33 -3.09 2.8 -3.09 s 2.8 1.13 2.8 3.09 s -1.33 3.08 -2.8 3.08 s -2.8 -1.13 -2.8 -3.08 Z m 4.18 0 c 0 -1.18 -0.52 -1.97 -1.38 -1.97 s -1.38 0.79 -1.38 1.97 s 0.52 1.96 1.38 1.96 s 1.38 -0.78 1.38 -1.96 Z" stroke-linecap="round" />
</g>
<g transform="matrix(1 0 0 1 405.21 126.34)"  >
<path style="stroke: none; stroke-width: 0; stroke-dasharray: 1 10; stroke-linecap: butt; stroke-dashoffset: 0; stroke-linejoin: miter; stroke-miterlimit: 4; fill: rgb(79,80,81); fill-rule: nonzero; opacity: 1;" vector-effect="non-scaling-stroke"  transform=" translate(-303.71, -109.84)" d="M 301.9 106.96 h 1.13 l 0.11 1.05 h 0.04 c 0.42 -0.77 1.04 -1.19 1.67 -1.19 c 0.3 0 0.49 0.04 0.67 0.12 l -0.24 1.2 c -0.21 -0.06 -0.36 -0.1 -0.6 -0.1 c -0.47 0 -1.04 0.32 -1.39 1.22 v 3.59 h -1.38 v -5.89 Z" stroke-linecap="round" />
</g>
<g transform="matrix(1 0 0 1 409.69 126.34)"  >
<path style="stroke: none; stroke-width: 0; stroke-dasharray: 1 10; stroke-linecap: butt; stroke-dashoffset: 0; stroke-linejoin: miter; stroke-miterlimit: 4; fill: rgb(79,80,81); fill-rule: nonzero; opacity: 1;" vector-effect="non-scaling-stroke"  transform=" translate(-308.19, -109.84)" d="M 306.38 106.96 h 1.13 l 0.11 1.05 h 0.04 c 0.42 -0.77 1.04 -1.19 1.67 -1.19 c 0.3 0 0.49 0.04 0.67 0.12 l -0.24 1.2 c -0.21 -0.06 -0.36 -0.1 -0.6 -0.1 c -0.47 0 -1.04 0.32 -1.39 1.22 v 3.59 h -1.38 v -5.89 Z" stroke-linecap="round" />
</g>
<g transform="matrix(1 0 0 1 414.42 126.41)"  >
<path style="stroke: none; stroke-width: 0; stroke-dasharray: 1 10; stroke-linecap: butt; stroke-dashoffset: 0; stroke-linejoin: miter; stroke-miterlimit: 4; fill: rgb(79,80,81); fill-rule: nonzero; opacity: 1;" vector-effect="non-scaling-stroke"  transform=" translate(-312.91, -109.91)" d="M 310.34 109.91 c 0 -1.91 1.33 -3.09 2.72 -3.09 c 1.59 0 2.43 1.15 2.43 2.8 c 0 0.26 -0.03 0.53 -0.06 0.67 h -3.74 c 0.11 1.05 0.79 1.64 1.74 1.64 c 0.5 0 0.94 -0.16 1.37 -0.43 l 0.47 0.86 c -0.56 0.38 -1.27 0.64 -2.02 0.64 c -1.63 0 -2.9 -1.14 -2.9 -3.08 Z m 3.95 -0.57 c 0 -0.91 -0.4 -1.46 -1.21 -1.46 c -0.69 0 -1.29 0.51 -1.41 1.46 h 2.62 Z" stroke-linecap="round" />
</g>
<g transform="matrix(1 0 0 1 420.73 126.41)"  >
<path style="stroke: none; stroke-width: 0; stroke-dasharray: 1 10; stroke-linecap: butt; stroke-dashoffset: 0; stroke-linejoin: miter; stroke-miterlimit: 4; fill: rgb(79,80,81); fill-rule: nonzero; opacity: 1;" vector-effect="non-scaling-stroke"  transform=" translate(-319.23, -109.91)" d="M 316.43 109.91 c 0 -1.96 1.33 -3.09 2.8 -3.09 s 2.8 1.13 2.8 3.09 s -1.33 3.08 -2.8 3.08 s -2.8 -1.13 -2.8 -3.08 Z m 4.18 0 c 0 -1.18 -0.52 -1.97 -1.38 -1.97 s -1.38 0.79 -1.38 1.97 s 0.52 1.96 1.38 1.96 s 1.38 -0.78 1.38 -1.96 Z" stroke-linecap="round" />
</g>
<g transform="matrix(1 0 0 1 236.98 140.81)"  >
<path style="stroke: none; stroke-width: 0; stroke-dasharray: 1 10; stroke-linecap: butt; stroke-dashoffset: 0; stroke-linejoin: miter; stroke-miterlimit: 4; fill: rgb(79,80,81); fill-rule: nonzero; opacity: 1;" vector-effect="non-scaling-stroke"  transform=" translate(-135.48, -124.31)" d="M 132.9 124.31 c 0 -1.91 1.33 -3.09 2.72 -3.09 c 1.59 0 2.43 1.15 2.43 2.8 c 0 0.26 -0.03 0.53 -0.06 0.67 h -3.74 c 0.12 1.05 0.79 1.64 1.74 1.64 c 0.5 0 0.94 -0.16 1.37 -0.43 l 0.47 0.86 c -0.56 0.38 -1.27 0.64 -2.02 0.64 c -1.63 0 -2.9 -1.14 -2.9 -3.08 Z m 3.95 -0.57 c 0 -0.91 -0.4 -1.46 -1.21 -1.46 c -0.69 0 -1.29 0.51 -1.41 1.46 h 2.62 Z" stroke-linecap="round" />
</g>
<g transform="matrix(1 0 0 1 241.91 139.58)"  >
<path style="stroke: none; stroke-width: 0; stroke-dasharray: 1 10; stroke-linecap: butt; stroke-dashoffset: 0; stroke-linejoin: miter; stroke-miterlimit: 4; fill: rgb(79,80,81); fill-rule: nonzero; opacity: 1;" vector-effect="non-scaling-stroke"  transform=" translate(-140.41, -123.08)" d="M 139.37 125.73 v -6.96 h 1.38 v 7.03 c 0 0.34 0.15 0.46 0.3 0.46 c 0.06 0 0.11 0 0.22 -0.02 l 0.17 1.03 c -0.17 0.07 -0.4 0.12 -0.73 0.12 c -0.98 0 -1.34 -0.63 -1.34 -1.66 Z" stroke-linecap="round" />
</g>
<g transform="matrix(1 0 0 1 246.31 140.81)"  >
<path style="stroke: none; stroke-width: 0; stroke-dasharray: 1 10; stroke-linecap: butt; stroke-dashoffset: 0; stroke-linejoin: miter; stroke-miterlimit: 4; fill: rgb(79,80,81); fill-rule: nonzero; opacity: 1;" vector-effect="non-scaling-stroke"  transform=" translate(-144.81, -124.31)" d="M 142.24 124.31 c 0 -1.91 1.33 -3.09 2.72 -3.09 c 1.59 0 2.43 1.15 2.43 2.8 c 0 0.26 -0.03 0.53 -0.06 0.67 h -3.74 c 0.12 1.05 0.79 1.64 1.74 1.64 c 0.5 0 0.94 -0.16 1.37 -0.43 l 0.47 0.86 c -0.56 0.38 -1.27 0.64 -2.02 0.64 c -1.63 0 -2.9 -1.14 -2.9 -3.08 Z m 3.95 -0.57 c 0 -0.91 -0.4 -1.46 -1.21 -1.46 c -0.69 0 -1.29 0.51 -1.41 1.46 h 2.62 Z" stroke-linecap="round" />
</g>
<g transform="matrix(1 0 0 1 252.2 140.81)"  >
<path style="stroke: none; stroke-width: 0; stroke-dasharray: 1 10; stroke-linecap: butt; stroke-dashoffset: 0; stroke-linejoin: miter; stroke-miterlimit: 4; fill: rgb(79,80,81); fill-rule: nonzero; opacity: 1;" vector-effect="non-scaling-stroke"  transform=" translate(-150.7, -124.31)" d="M 148.32 124.31 c 0 -1.96 1.39 -3.09 2.96 -3.09 c 0.75 0 1.3 0.29 1.72 0.66 l -0.67 0.9 c -0.31 -0.27 -0.61 -0.43 -0.98 -0.43 c -0.95 0 -1.61 0.79 -1.61 1.97 s 0.65 1.96 1.56 1.96 c 0.46 0 0.88 -0.23 1.22 -0.51 l 0.56 0.91 c -0.55 0.49 -1.25 0.72 -1.92 0.72 c -1.61 0 -2.84 -1.13 -2.84 -3.08 Z" stroke-linecap="round" />
</g>
<g transform="matrix(1 0 0 1 256.94 140.06)"  >
<path style="stroke: none; stroke-width: 0; stroke-dasharray: 1 10; stroke-linecap: butt; stroke-dashoffset: 0; stroke-linejoin: miter; stroke-miterlimit: 4; fill: rgb(79,80,81); fill-rule: nonzero; opacity: 1;" vector-effect="non-scaling-stroke"  transform=" translate(-155.44, -123.56)" d="M 154.34 125.26 v -2.81 h -0.84 v -1.04 l 0.91 -0.06 l 0.16 -1.61 h 1.15 v 1.61 h 1.5 v 1.1 h -1.5 v 2.8 c 0 0.69 0.27 1.03 0.83 1.03 c 0.2 0 0.44 -0.07 0.61 -0.13 l 0.23 1.02 c -0.32 0.11 -0.73 0.22 -1.2 0.22 c -1.36 0 -1.86 -0.86 -1.86 -2.13 Z" stroke-linecap="round" />
</g>
<g transform="matrix(1 0 0 1 261.78 140.74)"  >
<path style="stroke: none; stroke-width: 0; stroke-dasharray: 1 10; stroke-linecap: butt; stroke-dashoffset: 0; stroke-linejoin: miter; stroke-miterlimit: 4; fill: rgb(79,80,81); fill-rule: nonzero; opacity: 1;" vector-effect="non-scaling-stroke"  transform=" translate(-160.28, -124.24)" d="M 158.47 121.36 h 1.13 l 0.11 1.05 h 0.04 c 0.42 -0.77 1.04 -1.19 1.67 -1.19 c 0.3 0 0.49 0.04 0.67 0.12 l -0.24 1.2 c -0.21 -0.06 -0.36 -0.1 -0.6 -0.1 c -0.47 0 -1.04 0.32 -1.39 1.22 v 3.59 h -1.38 v -5.89 Z" stroke-linecap="round" />
</g>
<g transform="matrix(1 0 0 1 266.73 139)"  >
<path style="stroke: none; stroke-width: 0; stroke-dasharray: 1 10; stroke-linecap: butt; stroke-dashoffset: 0; stroke-linejoin: miter; stroke-miterlimit: 4; fill: rgb(79,80,81); fill-rule: nonzero; opacity: 1;" vector-effect="non-scaling-stroke"  transform=" translate(-165.23, -122.5)" d="M 162.43 124.31 c 0 -1.96 1.33 -3.09 2.8 -3.09 s 2.8 1.13 2.8 3.09 s -1.33 3.08 -2.8 3.08 s -2.8 -1.13 -2.8 -3.08 Z m 4.18 0 c 0 -1.18 -0.52 -1.97 -1.38 -1.97 s -1.38 0.79 -1.38 1.97 s 0.52 1.96 1.38 1.96 s 1.38 -0.78 1.38 -1.96 Z m -2.09 -4.61 l 1.77 -2.09 l 0.95 0.92 l -2.03 1.86 l -0.69 -0.68 Z" stroke-linecap="round" />
</g>
<g transform="matrix(1 0 0 1 273.42 140.74)"  >
<path style="stroke: none; stroke-width: 0; stroke-dasharray: 1 10; stroke-linecap: butt; stroke-dashoffset: 0; stroke-linejoin: miter; stroke-miterlimit: 4; fill: rgb(79,80,81); fill-rule: nonzero; opacity: 1;" vector-effect="non-scaling-stroke"  transform=" translate(-171.92, -124.24)" d="M 169.41 121.36 h 1.13 l 0.11 0.8 h 0.04 c 0.53 -0.51 1.13 -0.94 1.93 -0.94 c 1.26 0 1.81 0.85 1.81 2.34 v 3.69 h -1.38 v -3.52 c 0 -0.97 -0.28 -1.33 -0.92 -1.33 c -0.52 0 -0.86 0.25 -1.34 0.73 v 4.12 h -1.38 v -5.89 Z" stroke-linecap="round" />
</g>
<g transform="matrix(1 0 0 1 278.32 139.51)"  >
<path style="stroke: none; stroke-width: 0; stroke-dasharray: 1 10; stroke-linecap: butt; stroke-dashoffset: 0; stroke-linejoin: miter; stroke-miterlimit: 4; fill: rgb(79,80,81); fill-rule: nonzero; opacity: 1;" vector-effect="non-scaling-stroke"  transform=" translate(-176.82, -123.01)" d="M 175.97 119.55 c 0 -0.47 0.36 -0.78 0.85 -0.78 s 0.85 0.32 0.85 0.78 s -0.37 0.78 -0.85 0.78 s -0.85 -0.33 -0.85 -0.78 Z m 0.16 1.81 h 1.38 v 5.89 h -1.38 v -5.89 Z" stroke-linecap="round" />
</g>
<g transform="matrix(1 0 0 1 282.77 140.81)"  >
<path style="stroke: none; stroke-width: 0; stroke-dasharray: 1 10; stroke-linecap: butt; stroke-dashoffset: 0; stroke-linejoin: miter; stroke-miterlimit: 4; fill: rgb(79,80,81); fill-rule: nonzero; opacity: 1;" vector-effect="non-scaling-stroke"  transform=" translate(-181.27, -124.31)" d="M 178.89 124.31 c 0 -1.96 1.39 -3.09 2.96 -3.09 c 0.75 0 1.3 0.29 1.72 0.66 l -0.67 0.9 c -0.31 -0.27 -0.61 -0.43 -0.98 -0.43 c -0.95 0 -1.61 0.79 -1.61 1.97 s 0.65 1.96 1.56 1.96 c 0.46 0 0.88 -0.23 1.22 -0.51 l 0.56 0.91 c -0.55 0.49 -1.25 0.72 -1.92 0.72 c -1.61 0 -2.84 -1.13 -2.84 -3.08 Z" stroke-linecap="round" />
</g>
<g transform="matrix(1 0 0 1 288.44 140.81)"  >
<path style="stroke: none; stroke-width: 0; stroke-dasharray: 1 10; stroke-linecap: butt; stroke-dashoffset: 0; stroke-linejoin: miter; stroke-miterlimit: 4; fill: rgb(79,80,81); fill-rule: nonzero; opacity: 1;" vector-effect="non-scaling-stroke"  transform=" translate(-186.94, -124.31)" d="M 184.14 124.31 c 0 -1.96 1.33 -3.09 2.8 -3.09 s 2.8 1.13 2.8 3.09 s -1.33 3.08 -2.8 3.08 s -2.8 -1.13 -2.8 -3.08 Z m 4.18 0 c 0 -1.18 -0.52 -1.97 -1.38 -1.97 s -1.38 0.79 -1.38 1.97 s 0.52 1.96 1.38 1.96 s 1.38 -0.78 1.38 -1.96 Z" stroke-linecap="round" />
</g>
<g transform="matrix(1 0 0 1 297.05 140.81)"  >
<path style="stroke: none; stroke-width: 0; stroke-dasharray: 1 10; stroke-linecap: butt; stroke-dashoffset: 0; stroke-linejoin: miter; stroke-miterlimit: 4; fill: rgb(79,80,81); fill-rule: nonzero; opacity: 1;" vector-effect="non-scaling-stroke"  transform=" translate(-195.54, -124.31)" d="M 193.13 125.67 c 0 -1.26 1.05 -1.92 3.46 -2.18 c -0.02 -0.63 -0.27 -1.16 -1.07 -1.16 c -0.58 0 -1.14 0.26 -1.66 0.58 l -0.51 -0.92 c 0.65 -0.41 1.48 -0.77 2.42 -0.77 c 1.47 0 2.2 0.91 2.2 2.55 v 3.49 h -1.13 l -0.11 -0.65 h -0.04 c -0.53 0.45 -1.13 0.8 -1.83 0.8 c -1.03 0 -1.74 -0.7 -1.74 -1.73 Z m 3.46 0 v -1.32 c -1.6 0.2 -2.13 0.62 -2.13 1.21 c 0 0.52 0.36 0.75 0.85 0.75 s 0.84 -0.23 1.28 -0.64 Z" stroke-linecap="round" />
</g>
<g transform="matrix(1 0 0 1 302.81 140.8)"  >
<path style="stroke: none; stroke-width: 0; stroke-dasharray: 1 10; stroke-linecap: butt; stroke-dashoffset: 0; stroke-linejoin: miter; stroke-miterlimit: 4; fill: rgb(79,80,81); fill-rule: nonzero; opacity: 1;" vector-effect="non-scaling-stroke"  transform=" translate(-201.31, -124.3)" d="M 199.05 126.57 l 0.64 -0.88 c 0.52 0.41 1.03 0.66 1.63 0.66 c 0.64 0 0.95 -0.3 0.95 -0.71 c 0 -0.49 -0.64 -0.71 -1.27 -0.95 c -0.77 -0.29 -1.66 -0.73 -1.66 -1.72 s 0.83 -1.76 2.14 -1.76 c 0.82 0 1.48 0.33 1.96 0.71 l -0.63 0.85 c -0.41 -0.3 -0.83 -0.51 -1.29 -0.51 c -0.59 0 -0.87 0.28 -0.87 0.65 c 0 0.47 0.59 0.64 1.23 0.88 c 0.8 0.3 1.69 0.68 1.69 1.78 c 0 1.01 -0.8 1.83 -2.29 1.83 c -0.81 0 -1.66 -0.35 -2.23 -0.82 Z" stroke-linecap="round" />
</g>
<g transform="matrix(1 0 0 1 308.72 140.81)"  >
<path style="stroke: none; stroke-width: 0; stroke-dasharray: 1 10; stroke-linecap: butt; stroke-dashoffset: 0; stroke-linejoin: miter; stroke-miterlimit: 4; fill: rgb(79,80,81); fill-rule: nonzero; opacity: 1;" vector-effect="non-scaling-stroke"  transform=" translate(-207.22, -124.31)" d="M 204.42 124.31 c 0 -1.96 1.33 -3.09 2.8 -3.09 s 2.8 1.13 2.8 3.09 s -1.33 3.08 -2.8 3.08 s -2.8 -1.13 -2.8 -3.08 Z m 4.18 0 c 0 -1.18 -0.52 -1.97 -1.38 -1.97 s -1.38 0.79 -1.38 1.97 s 0.52 1.96 1.38 1.96 s 1.38 -0.78 1.38 -1.96 Z" stroke-linecap="round" />
</g>
<g transform="matrix(1 0 0 1 314.89 140.81)"  >
<path style="stroke: none; stroke-width: 0; stroke-dasharray: 1 10; stroke-linecap: butt; stroke-dashoffset: 0; stroke-linejoin: miter; stroke-miterlimit: 4; fill: rgb(79,80,81); fill-rule: nonzero; opacity: 1;" vector-effect="non-scaling-stroke"  transform=" translate(-213.39, -124.31)" d="M 211.01 124.31 c 0 -1.96 1.39 -3.09 2.96 -3.09 c 0.75 0 1.3 0.29 1.72 0.66 l -0.67 0.9 c -0.31 -0.27 -0.61 -0.43 -0.98 -0.43 c -0.95 0 -1.61 0.79 -1.61 1.97 s 0.65 1.96 1.56 1.96 c 0.46 0 0.88 -0.23 1.22 -0.51 l 0.56 0.91 c -0.55 0.49 -1.25 0.72 -1.92 0.72 c -1.61 0 -2.84 -1.13 -2.84 -3.08 Z" stroke-linecap="round" />
</g>
<g transform="matrix(1 0 0 1 319.13 139.51)"  >
<path style="stroke: none; stroke-width: 0; stroke-dasharray: 1 10; stroke-linecap: butt; stroke-dashoffset: 0; stroke-linejoin: miter; stroke-miterlimit: 4; fill: rgb(79,80,81); fill-rule: nonzero; opacity: 1;" vector-effect="non-scaling-stroke"  transform=" translate(-217.63, -123.01)" d="M 216.78 119.55 c 0 -0.47 0.36 -0.78 0.85 -0.78 s 0.85 0.32 0.85 0.78 s -0.37 0.78 -0.85 0.78 s -0.85 -0.33 -0.85 -0.78 Z m 0.16 1.81 h 1.38 v 5.89 h -1.38 v -5.89 Z" stroke-linecap="round" />
</g>
<g transform="matrix(1 0 0 1 323.69 140.81)"  >
<path style="stroke: none; stroke-width: 0; stroke-dasharray: 1 10; stroke-linecap: butt; stroke-dashoffset: 0; stroke-linejoin: miter; stroke-miterlimit: 4; fill: rgb(79,80,81); fill-rule: nonzero; opacity: 1;" vector-effect="non-scaling-stroke"  transform=" translate(-222.19, -124.31)" d="M 219.77 125.67 c 0 -1.26 1.05 -1.92 3.46 -2.18 c -0.02 -0.63 -0.27 -1.16 -1.07 -1.16 c -0.58 0 -1.14 0.26 -1.66 0.58 l -0.51 -0.92 c 0.65 -0.41 1.48 -0.77 2.42 -0.77 c 1.47 0 2.2 0.91 2.2 2.55 v 3.49 h -1.13 l -0.11 -0.65 h -0.04 c -0.53 0.45 -1.13 0.8 -1.83 0.8 c -1.03 0 -1.74 -0.7 -1.74 -1.73 Z m 3.46 0 v -1.32 c -1.6 0.2 -2.13 0.62 -2.13 1.21 c 0 0.52 0.36 0.75 0.85 0.75 s 0.84 -0.23 1.28 -0.64 Z" stroke-linecap="round" />
</g>
<g transform="matrix(1 0 0 1 330.09 139.59)"  >
<path style="stroke: none; stroke-width: 0; stroke-dasharray: 1 10; stroke-linecap: butt; stroke-dashoffset: 0; stroke-linejoin: miter; stroke-miterlimit: 4; fill: rgb(79,80,81); fill-rule: nonzero; opacity: 1;" vector-effect="non-scaling-stroke"  transform=" translate(-228.59, -123.09)" d="M 225.92 124.31 c 0 -1.92 1.2 -3.09 2.49 -3.09 c 0.67 0 1.09 0.25 1.54 0.65 l -0.05 -0.95 v -2.13 h 1.38 v 8.47 h -1.13 l -0.11 -0.64 h -0.04 c -0.44 0.44 -1.04 0.78 -1.67 0.78 c -1.47 0 -2.42 -1.14 -2.42 -3.08 Z m 3.99 1.28 v -2.74 c -0.4 -0.36 -0.8 -0.49 -1.2 -0.49 c -0.75 0 -1.37 0.71 -1.37 1.94 s 0.49 1.96 1.34 1.96 c 0.46 0 0.84 -0.2 1.23 -0.66 Z" stroke-linecap="round" />
</g>
<g transform="matrix(1 0 0 1 336.96 140.81)"  >
<path style="stroke: none; stroke-width: 0; stroke-dasharray: 1 10; stroke-linecap: butt; stroke-dashoffset: 0; stroke-linejoin: miter; stroke-miterlimit: 4; fill: rgb(79,80,81); fill-rule: nonzero; opacity: 1;" vector-effect="non-scaling-stroke"  transform=" translate(-235.46, -124.31)" d="M 232.66 124.31 c 0 -1.96 1.33 -3.09 2.8 -3.09 s 2.8 1.13 2.8 3.09 s -1.33 3.08 -2.8 3.08 s -2.8 -1.13 -2.8 -3.08 Z m 4.18 0 c 0 -1.18 -0.52 -1.97 -1.38 -1.97 s -1.38 0.79 -1.38 1.97 s 0.52 1.96 1.38 1.96 s 1.38 -0.78 1.38 -1.96 Z" stroke-linecap="round" />
</g>
<g transform="matrix(1 0 0 1 345.56 140.81)"  >
<path style="stroke: none; stroke-width: 0; stroke-dasharray: 1 10; stroke-linecap: butt; stroke-dashoffset: 0; stroke-linejoin: miter; stroke-miterlimit: 4; fill: rgb(79,80,81); fill-rule: nonzero; opacity: 1;" vector-effect="non-scaling-stroke"  transform=" translate(-244.05, -124.31)" d="M 241.64 125.67 c 0 -1.26 1.05 -1.92 3.46 -2.18 c -0.02 -0.63 -0.27 -1.16 -1.07 -1.16 c -0.58 0 -1.14 0.26 -1.66 0.58 l -0.51 -0.92 c 0.65 -0.41 1.48 -0.77 2.42 -0.77 c 1.47 0 2.2 0.91 2.2 2.55 v 3.49 h -1.13 l -0.11 -0.65 h -0.04 c -0.53 0.45 -1.13 0.8 -1.83 0.8 c -1.03 0 -1.74 -0.7 -1.74 -1.73 Z m 3.46 0 v -1.32 c -1.6 0.2 -2.13 0.62 -2.13 1.21 c 0 0.52 0.36 0.75 0.85 0.75 s 0.84 -0.23 1.28 -0.64 Z" stroke-linecap="round" />
</g>
<g transform="matrix(1 0 0 1 353.73 140.8)"  >
<path style="stroke: none; stroke-width: 0; stroke-dasharray: 1 10; stroke-linecap: butt; stroke-dashoffset: 0; stroke-linejoin: miter; stroke-miterlimit: 4; fill: rgb(79,80,81); fill-rule: nonzero; opacity: 1;" vector-effect="non-scaling-stroke"  transform=" translate(-252.23, -124.3)" d="M 249.97 126.57 l 0.64 -0.88 c 0.52 0.41 1.03 0.66 1.63 0.66 c 0.64 0 0.95 -0.3 0.95 -0.71 c 0 -0.49 -0.64 -0.71 -1.27 -0.95 c -0.77 -0.29 -1.66 -0.73 -1.66 -1.72 s 0.83 -1.76 2.14 -1.76 c 0.82 0 1.48 0.33 1.96 0.71 l -0.63 0.85 c -0.41 -0.3 -0.83 -0.51 -1.29 -0.51 c -0.59 0 -0.87 0.28 -0.87 0.65 c 0 0.47 0.59 0.64 1.23 0.88 c 0.8 0.3 1.69 0.68 1.69 1.78 c 0 1.01 -0.8 1.83 -2.29 1.83 c -0.81 0 -1.66 -0.35 -2.23 -0.82 Z" stroke-linecap="round" />
</g>
<g transform="matrix(1 0 0 1 359.66 140.88)"  >
<path style="stroke: none; stroke-width: 0; stroke-dasharray: 1 10; stroke-linecap: butt; stroke-dashoffset: 0; stroke-linejoin: miter; stroke-miterlimit: 4; fill: rgb(79,80,81); fill-rule: nonzero; opacity: 1;" vector-effect="non-scaling-stroke"  transform=" translate(-258.16, -124.38)" d="M 255.66 125.05 v -3.69 h 1.38 v 3.52 c 0 0.97 0.28 1.33 0.92 1.33 c 0.52 0 0.86 -0.24 1.31 -0.82 v -4.03 h 1.38 v 5.89 h -1.13 l -0.11 -0.87 h -0.04 c -0.52 0.61 -1.09 1.01 -1.9 1.01 c -1.26 0 -1.81 -0.85 -1.81 -2.34 Z" stroke-linecap="round" />
</g>
<g transform="matrix(1 0 0 1 368.29 140.81)"  >
<path style="stroke: none; stroke-width: 0; stroke-dasharray: 1 10; stroke-linecap: butt; stroke-dashoffset: 0; stroke-linejoin: miter; stroke-miterlimit: 4; fill: rgb(79,80,81); fill-rule: nonzero; opacity: 1;" vector-effect="non-scaling-stroke"  transform=" translate(-266.79, -124.31)" d="M 264.41 124.31 c 0 -1.96 1.39 -3.09 2.96 -3.09 c 0.75 0 1.3 0.29 1.72 0.66 l -0.67 0.9 c -0.31 -0.27 -0.61 -0.43 -0.98 -0.43 c -0.95 0 -1.61 0.79 -1.61 1.97 s 0.65 1.96 1.56 1.96 c 0.46 0 0.88 -0.23 1.22 -0.51 l 0.56 0.91 c -0.55 0.49 -1.25 0.72 -1.92 0.72 c -1.61 0 -2.84 -1.13 -2.84 -3.08 Z" stroke-linecap="round" />
</g>
<g transform="matrix(1 0 0 1 374.25 140.88)"  >
<path style="stroke: none; stroke-width: 0; stroke-dasharray: 1 10; stroke-linecap: butt; stroke-dashoffset: 0; stroke-linejoin: miter; stroke-miterlimit: 4; fill: rgb(79,80,81); fill-rule: nonzero; opacity: 1;" vector-effect="non-scaling-stroke"  transform=" translate(-272.75, -124.38)" d="M 270.27 125.05 v -3.69 h 1.38 v 3.52 c 0 0.97 0.28 1.33 0.92 1.33 c 0.52 0 0.86 -0.24 1.3 -0.82 v -4.03 h 1.38 v 5.89 h -1.13 l -0.11 -0.87 h -0.04 c -0.52 0.61 -1.09 1.01 -1.9 1.01 c -1.26 0 -1.81 -0.85 -1.81 -2.34 Z" stroke-linecap="round" />
</g>
<g transform="matrix(1 0 0 1 380.7 140.81)"  >
<path style="stroke: none; stroke-width: 0; stroke-dasharray: 1 10; stroke-linecap: butt; stroke-dashoffset: 0; stroke-linejoin: miter; stroke-miterlimit: 4; fill: rgb(79,80,81); fill-rule: nonzero; opacity: 1;" vector-effect="non-scaling-stroke"  transform=" translate(-279.2, -124.31)" d="M 276.62 124.31 c 0 -1.91 1.33 -3.09 2.72 -3.09 c 1.59 0 2.43 1.15 2.43 2.8 c 0 0.26 -0.03 0.53 -0.06 0.67 h -3.74 c 0.12 1.05 0.79 1.64 1.74 1.64 c 0.5 0 0.94 -0.16 1.37 -0.43 l 0.47 0.86 c -0.56 0.38 -1.27 0.64 -2.02 0.64 c -1.63 0 -2.9 -1.14 -2.9 -3.08 Z m 3.95 -0.57 c 0 -0.91 -0.4 -1.46 -1.21 -1.46 c -0.69 0 -1.29 0.51 -1.41 1.46 h 2.62 Z" stroke-linecap="round" />
</g>
<g transform="matrix(1 0 0 1 387.11 140.74)"  >
<path style="stroke: none; stroke-width: 0; stroke-dasharray: 1 10; stroke-linecap: butt; stroke-dashoffset: 0; stroke-linejoin: miter; stroke-miterlimit: 4; fill: rgb(79,80,81); fill-rule: nonzero; opacity: 1;" vector-effect="non-scaling-stroke"  transform=" translate(-285.61, -124.24)" d="M 283.1 121.36 h 1.13 l 0.11 0.8 h 0.04 c 0.53 -0.51 1.13 -0.94 1.93 -0.94 c 1.26 0 1.81 0.85 1.81 2.34 v 3.69 h -1.38 v -3.52 c 0 -0.97 -0.28 -1.33 -0.92 -1.33 c -0.52 0 -0.86 0.25 -1.34 0.73 v 4.12 h -1.38 v -5.89 Z" stroke-linecap="round" />
</g>
<g transform="matrix(1 0 0 1 392.63 140.06)"  >
<path style="stroke: none; stroke-width: 0; stroke-dasharray: 1 10; stroke-linecap: butt; stroke-dashoffset: 0; stroke-linejoin: miter; stroke-miterlimit: 4; fill: rgb(79,80,81); fill-rule: nonzero; opacity: 1;" vector-effect="non-scaling-stroke"  transform=" translate(-291.13, -123.56)" d="M 290.02 125.26 v -2.81 h -0.84 v -1.04 l 0.91 -0.06 l 0.16 -1.61 h 1.15 v 1.61 h 1.5 v 1.1 h -1.5 v 2.8 c 0 0.69 0.27 1.03 0.83 1.03 c 0.2 0 0.44 -0.07 0.61 -0.13 l 0.23 1.02 c -0.32 0.11 -0.73 0.22 -1.2 0.22 c -1.36 0 -1.86 -0.86 -1.86 -2.13 Z" stroke-linecap="round" />
</g>
<g transform="matrix(1 0 0 1 397.5 140.81)"  >
<path style="stroke: none; stroke-width: 0; stroke-dasharray: 1 10; stroke-linecap: butt; stroke-dashoffset: 0; stroke-linejoin: miter; stroke-miterlimit: 4; fill: rgb(79,80,81); fill-rule: nonzero; opacity: 1;" vector-effect="non-scaling-stroke"  transform=" translate(-295.99, -124.31)" d="M 293.58 125.67 c 0 -1.26 1.05 -1.92 3.46 -2.18 c -0.02 -0.63 -0.27 -1.16 -1.07 -1.16 c -0.58 0 -1.14 0.26 -1.66 0.58 l -0.51 -0.92 c 0.65 -0.41 1.48 -0.77 2.42 -0.77 c 1.47 0 2.2 0.91 2.2 2.55 v 3.49 h -1.13 l -0.11 -0.65 h -0.04 c -0.53 0.45 -1.13 0.8 -1.83 0.8 c -1.03 0 -1.74 -0.7 -1.74 -1.73 Z m 3.46 0 v -1.32 c -1.6 0.2 -2.13 0.62 -2.13 1.21 c 0 0.52 0.36 0.75 0.85 0.75 s 0.84 -0.23 1.28 -0.64 Z" stroke-linecap="round" />
</g>
<g transform="matrix(1 0 0 1 317.5 69.68)"  >
<path style="stroke: none; stroke-width: 0; stroke-dasharray: 1 10; stroke-linecap: butt; stroke-dashoffset: 0; stroke-linejoin: miter; stroke-miterlimit: 4; fill: rgb(163,165,168); fill-rule: nonzero; opacity: 1;" vector-effect="non-scaling-stroke"  transform=" translate(-216, -53.18)" d="M 204 44.18 v 18 h 24 v -18 h -24 Z m 21.52 2 l -9.52 7.71 l -9.52 -7.71 s 19.04 0 19.04 0 Z m -19.52 14 v -11.82 l 10 8.1 l 10 -8.1 v 11.82 h -20 Z" stroke-linecap="round" />
</g>
<g transform="matrix(1 0 0 1 317.5 69.69)"  >
<path style="stroke: none; stroke-width: 0; stroke-dasharray: 1 10; stroke-linecap: butt; stroke-dashoffset: 0; stroke-linejoin: miter; stroke-miterlimit: 4; fill: rgb(200,16,47); fill-rule: evenodd; opacity: 1;" vector-effect="non-scaling-stroke"  transform=" translate(-216, -53.19)" d="M 240.1 67.24 h -2.01 v -4.42 c -3.72 8.51 -12.22 14.46 -22.1 14.46 c -13.3 0 -24.1 -10.8 -24.1 -24.1 h 2.01 c 0 12.19 9.9 22.1 22.1 22.1 c 9.36 0 17.37 -5.83 20.59 -14.06 h -4.52 v -2.01 h 8.03 v 8.03 Z m -24.15 -17.07 l -16.03 -3.01 h -8.03 v -8.03 h 2.01 v 4.42 c 3.72 -8.51 12.22 -14.46 22.1 -14.46 c 13.3 0 24.1 10.8 24.1 24.1 h -2.01 c 0 -12.19 -9.9 -22.1 -22.1 -22.1 c -9.36 0 -17.37 5.83 -20.59 14.06 h 4.52 s 0 2.01 0 2.01 Z" stroke-linecap="round" />
</g>
<g transform="matrix(1 0 0 1 165.05 219.47)"  >
<path style="stroke: none; stroke-width: 0; stroke-dasharray: 1 10; stroke-linecap: butt; stroke-dashoffset: 0; stroke-linejoin: miter; stroke-miterlimit: 4; fill: rgb(179,181,183); fill-rule: nonzero; opacity: 1;" vector-effect="non-scaling-stroke"  transform=" translate(-63.55, -202.97)" d="M 60.46 202.97 c 0 -2.37 1.6 -3.83 3.28 -3.83 c 1.86 0 2.91 1.33 2.91 3.42 c 0 0.26 -0.02 0.52 -0.06 0.7 h -4.91 c 0.09 1.54 1.03 2.55 2.42 2.55 c 0.7 0 1.27 -0.23 1.81 -0.58 l 0.44 0.81 c -0.64 0.42 -1.42 0.76 -2.41 0.76 c -1.94 0 -3.49 -1.42 -3.49 -3.82 Z m 5.1 -0.6 c 0 -1.46 -0.66 -2.26 -1.8 -2.26 c -1.03 0 -1.94 0.82 -2.09 2.26 h 3.89 Z" stroke-linecap="round" />
</g>
<g transform="matrix(1 0 0 1 170.2 219.54)"  >
<path style="stroke: none; stroke-width: 0; stroke-dasharray: 1 10; stroke-linecap: butt; stroke-dashoffset: 0; stroke-linejoin: miter; stroke-miterlimit: 4; fill: rgb(179,181,183); fill-rule: nonzero; opacity: 1;" vector-effect="non-scaling-stroke"  transform=" translate(-68.7, -203.04)" d="M 67.05 209.67 l 0.24 -0.94 c 0.19 0.06 0.44 0.13 0.69 0.13 c 0.73 0 0.9 -0.55 0.9 -1.43 v -8.11 h 1.23 v 8.11 c 0 1.49 -0.55 2.43 -2 2.43 c -0.44 0 -0.81 -0.09 -1.07 -0.19 Z m 1.61 -12.65 c 0 -0.48 0.37 -0.8 0.85 -0.8 s 0.85 0.31 0.85 0.8 s -0.37 0.8 -0.85 0.8 s -0.85 -0.33 -0.85 -0.8 Z" stroke-linecap="round" />
</g>
<g transform="matrix(1 0 0 1 177.06 219.47)"  >
<path style="stroke: none; stroke-width: 0; stroke-dasharray: 1 10; stroke-linecap: butt; stroke-dashoffset: 0; stroke-linejoin: miter; stroke-miterlimit: 4; fill: rgb(179,181,183); fill-rule: nonzero; opacity: 1;" vector-effect="non-scaling-stroke"  transform=" translate(-75.56, -202.97)" d="M 72.47 202.97 c 0 -2.37 1.6 -3.83 3.28 -3.83 c 1.86 0 2.91 1.33 2.91 3.42 c 0 0.26 -0.02 0.52 -0.06 0.7 h -4.91 c 0.09 1.54 1.03 2.55 2.42 2.55 c 0.7 0 1.27 -0.23 1.81 -0.58 l 0.44 0.81 c -0.64 0.42 -1.42 0.76 -2.41 0.76 c -1.94 0 -3.49 -1.42 -3.49 -3.82 Z m 5.1 -0.6 c 0 -1.46 -0.66 -2.26 -1.8 -2.26 c -1.03 0 -1.94 0.82 -2.09 2.26 h 3.89 Z" stroke-linecap="round" />
</g>
<g transform="matrix(1 0 0 1 187.41 219.37)"  >
<path style="stroke: none; stroke-width: 0; stroke-dasharray: 1 10; stroke-linecap: butt; stroke-dashoffset: 0; stroke-linejoin: miter; stroke-miterlimit: 4; fill: rgb(179,181,183); fill-rule: nonzero; opacity: 1;" vector-effect="non-scaling-stroke"  transform=" translate(-85.91, -202.87)" d="M 80.89 199.31 h 1.02 l 0.1 1.06 h 0.04 c 0.64 -0.69 1.4 -1.24 2.27 -1.24 c 1.12 0 1.71 0.53 2.01 1.39 c 0.76 -0.82 1.52 -1.39 2.4 -1.39 c 1.5 0 2.22 0.99 2.22 2.85 v 4.62 h -1.23 v -4.46 c 0 -1.36 -0.43 -1.94 -1.36 -1.94 c -0.57 0 -1.15 0.37 -1.83 1.12 v 5.28 h -1.23 v -4.46 c 0 -1.36 -0.43 -1.94 -1.36 -1.94 c -0.55 0 -1.15 0.37 -1.83 1.12 v 5.28 h -1.23 v -7.29 Z" stroke-linecap="round" />
</g>
<g transform="matrix(1 0 0 1 198.44 220.91)"  >
<path style="stroke: none; stroke-width: 0; stroke-dasharray: 1 10; stroke-linecap: butt; stroke-dashoffset: 0; stroke-linejoin: miter; stroke-miterlimit: 4; fill: rgb(179,181,183); fill-rule: nonzero; opacity: 1;" vector-effect="non-scaling-stroke"  transform=" translate(-96.94, -204.41)" d="M 93.76 199.31 h 1.02 l 0.1 0.84 h 0.04 c 0.66 -0.55 1.48 -1.02 2.32 -1.02 c 1.88 0 2.89 1.46 2.89 3.71 c 0 2.49 -1.49 3.94 -3.16 3.94 c -0.67 0 -1.35 -0.31 -2.02 -0.84 l 0.03 1.27 v 2.47 h -1.23 v -10.37 Z m 5.1 3.55 c 0 -1.61 -0.55 -2.69 -1.92 -2.69 c -0.62 0 -1.24 0.34 -1.95 1 v 3.82 c 0.66 0.55 1.29 0.76 1.78 0.76 c 1.21 0 2.1 -1.09 2.1 -2.89 Z" stroke-linecap="round" />
</g>
<g transform="matrix(1 0 0 1 204.97 217.86)"  >
<path style="stroke: none; stroke-width: 0; stroke-dasharray: 1 10; stroke-linecap: butt; stroke-dashoffset: 0; stroke-linejoin: miter; stroke-miterlimit: 4; fill: rgb(179,181,183); fill-rule: nonzero; opacity: 1;" vector-effect="non-scaling-stroke"  transform=" translate(-103.47, -201.35)" d="M 102.46 205.14 v -9.22 h 1.23 v 9.31 c 0 0.38 0.16 0.53 0.34 0.53 c 0.07 0 0.13 0 0.27 -0.03 l 0.17 0.94 c -0.17 0.06 -0.39 0.12 -0.71 0.12 c -0.92 0 -1.3 -0.59 -1.3 -1.64 Z" stroke-linecap="round" />
</g>
<g transform="matrix(1 0 0 1 211.06 219.46)"  >
<path style="stroke: none; stroke-width: 0; stroke-dasharray: 1 10; stroke-linecap: butt; stroke-dashoffset: 0; stroke-linejoin: miter; stroke-miterlimit: 4; fill: rgb(179,181,183); fill-rule: nonzero; opacity: 1;" vector-effect="non-scaling-stroke"  transform=" translate(-109.56, -202.96)" d="M 106.18 202.97 c 0 -2.43 1.59 -3.83 3.38 -3.83 s 3.38 1.4 3.38 3.83 s -1.59 3.82 -3.38 3.82 s -3.38 -1.4 -3.38 -3.82 Z m 5.48 0 c 0 -1.67 -0.85 -2.81 -2.1 -2.81 s -2.1 1.14 -2.1 2.81 s 0.85 2.79 2.1 2.79 s 2.1 -1.12 2.1 -2.79 Z" stroke-linecap="round" />
</g>
<g transform="matrix(1 0 0 1 221.84 219.43)"  >
<path style="stroke: none; stroke-width: 0; stroke-dasharray: 1 10; stroke-linecap: butt; stroke-dashoffset: 0; stroke-linejoin: miter; stroke-miterlimit: 4; fill: rgb(179,181,183); fill-rule: nonzero; opacity: 1;" vector-effect="non-scaling-stroke"  transform=" translate(-120.34, -202.93)" d="M 114.75 203.55 c 0 -4.01 2.9 -6.64 6.26 -6.64 c 3.03 0 4.93 2.01 4.93 4.98 c 0 2.62 -1.64 3.98 -3 3.98 c -0.82 0 -1.45 -0.38 -1.55 -1.14 h -0.03 c -0.48 0.58 -1.16 1.03 -1.82 1.03 c -1.02 0 -1.81 -0.76 -1.81 -2.12 c 0 -1.6 1.13 -3.48 2.88 -3.48 c 0.52 0 0.93 0.23 1.21 0.73 h 0.03 l 0.16 -0.61 h 0.82 l -0.59 3 c -0.29 1.19 0 1.75 0.82 1.75 c 0.94 0 2.01 -1.15 2.01 -3.1 c 0 -2.42 -1.43 -4.19 -4.16 -4.19 s -5.25 2.27 -5.25 5.77 c 0 2.93 1.91 4.59 4.46 4.59 c 0.91 0 1.75 -0.28 2.43 -0.67 l 0.33 0.74 c -0.87 0.52 -1.81 0.77 -2.86 0.77 c -2.94 0 -5.28 -1.88 -5.28 -5.38 Z m 6.4 0.47 l 0.42 -2.38 c -0.29 -0.46 -0.56 -0.62 -0.96 -0.62 c -1.18 0 -1.91 1.42 -1.91 2.55 c 0 0.96 0.45 1.34 1.05 1.34 c 0.42 0 0.87 -0.26 1.39 -0.88 Z" stroke-linecap="round" />
</g>
<g transform="matrix(1 0 0 1 232.41 219.47)"  >
<path style="stroke: none; stroke-width: 0; stroke-dasharray: 1 10; stroke-linecap: butt; stroke-dashoffset: 0; stroke-linejoin: miter; stroke-miterlimit: 4; fill: rgb(179,181,183); fill-rule: nonzero; opacity: 1;" vector-effect="non-scaling-stroke"  transform=" translate(-130.91, -202.97)" d="M 127.82 202.97 c 0 -2.37 1.6 -3.83 3.28 -3.83 c 1.86 0 2.91 1.33 2.91 3.42 c 0 0.26 -0.02 0.52 -0.06 0.7 h -4.91 c 0.09 1.54 1.03 2.55 2.42 2.55 c 0.7 0 1.27 -0.23 1.81 -0.58 l 0.44 0.81 c -0.64 0.42 -1.42 0.76 -2.41 0.76 c -1.94 0 -3.49 -1.42 -3.49 -3.82 Z m 5.1 -0.6 c 0 -1.46 -0.66 -2.26 -1.8 -2.26 c -1.03 0 -1.94 0.82 -2.09 2.26 h 3.89 Z" stroke-linecap="round" />
</g>
<g transform="matrix(1 0 0 1 242.77 219.37)"  >
<path style="stroke: none; stroke-width: 0; stroke-dasharray: 1 10; stroke-linecap: butt; stroke-dashoffset: 0; stroke-linejoin: miter; stroke-miterlimit: 4; fill: rgb(179,181,183); fill-rule: nonzero; opacity: 1;" vector-effect="non-scaling-stroke"  transform=" translate(-141.26, -202.87)" d="M 136.24 199.31 h 1.02 l 0.1 1.06 h 0.04 c 0.64 -0.69 1.4 -1.24 2.27 -1.24 c 1.12 0 1.71 0.53 2.01 1.39 c 0.76 -0.82 1.52 -1.39 2.4 -1.39 c 1.5 0 2.22 0.99 2.22 2.85 v 4.62 h -1.23 v -4.46 c 0 -1.36 -0.43 -1.94 -1.36 -1.94 c -0.57 0 -1.15 0.37 -1.83 1.12 v 5.28 h -1.23 v -4.46 c 0 -1.36 -0.43 -1.94 -1.36 -1.94 c -0.55 0 -1.15 0.37 -1.83 1.12 v 5.28 h -1.23 v -7.29 Z" stroke-linecap="round" />
</g>
<g transform="matrix(1 0 0 1 253.02 219.45)"  >
<path style="stroke: none; stroke-width: 0; stroke-dasharray: 1 10; stroke-linecap: butt; stroke-dashoffset: 0; stroke-linejoin: miter; stroke-miterlimit: 4; fill: rgb(179,181,183); fill-rule: nonzero; opacity: 1;" vector-effect="non-scaling-stroke"  transform=" translate(-151.52, -202.96)" d="M 148.66 204.71 c 0 -1.59 1.37 -2.38 4.48 -2.72 c 0 -0.94 -0.31 -1.84 -1.5 -1.84 c -0.84 0 -1.6 0.4 -2.17 0.78 l -0.48 -0.85 c 0.67 -0.44 1.69 -0.95 2.86 -0.95 c 1.78 0 2.53 1.18 2.53 3 v 4.47 h -1.02 l -0.1 -0.87 h -0.04 c -0.7 0.58 -1.51 1.05 -2.41 1.05 c -1.22 0 -2.14 -0.76 -2.14 -2.07 Z m 4.48 0.11 v -2.02 c -2.44 0.29 -3.27 0.89 -3.27 1.82 c 0 0.83 0.56 1.17 1.28 1.17 s 1.29 -0.34 1.99 -0.96 Z" stroke-linecap="round" />
</g>
<g transform="matrix(1 0 0 1 259.23 217.92)"  >
<path style="stroke: none; stroke-width: 0; stroke-dasharray: 1 10; stroke-linecap: butt; stroke-dashoffset: 0; stroke-linejoin: miter; stroke-miterlimit: 4; fill: rgb(179,181,183); fill-rule: nonzero; opacity: 1;" vector-effect="non-scaling-stroke"  transform=" translate(-157.73, -201.42)" d="M 156.88 197.02 c 0 -0.48 0.37 -0.8 0.85 -0.8 s 0.85 0.31 0.85 0.8 s -0.37 0.8 -0.85 0.8 s -0.85 -0.33 -0.85 -0.8 Z m 0.23 2.3 h 1.23 v 7.29 h -1.23 v -7.29 Z" stroke-linecap="round" />
</g>
<g transform="matrix(1 0 0 1 263.74 217.86)"  >
<path style="stroke: none; stroke-width: 0; stroke-dasharray: 1 10; stroke-linecap: butt; stroke-dashoffset: 0; stroke-linejoin: miter; stroke-miterlimit: 4; fill: rgb(179,181,183); fill-rule: nonzero; opacity: 1;" vector-effect="non-scaling-stroke"  transform=" translate(-162.23, -201.35)" d="M 161.23 205.14 v -9.22 h 1.23 v 9.31 c 0 0.38 0.16 0.53 0.34 0.53 c 0.07 0 0.13 0 0.27 -0.03 l 0.17 0.94 c -0.17 0.06 -0.39 0.12 -0.71 0.12 c -0.92 0 -1.3 -0.59 -1.3 -1.64 Z" stroke-linecap="round" />
</g>
<g transform="matrix(1 0 0 1 267.62 222.34)"  >
<path style="stroke: none; stroke-width: 0; stroke-dasharray: 1 10; stroke-linecap: butt; stroke-dashoffset: 0; stroke-linejoin: miter; stroke-miterlimit: 4; fill: rgb(179,181,183); fill-rule: nonzero; opacity: 1;" vector-effect="non-scaling-stroke"  transform=" translate(-166.12, -205.84)" d="M 165.23 205.85 c 0 -0.57 0.4 -0.95 0.89 -0.95 s 0.89 0.39 0.89 0.95 s -0.4 0.93 -0.89 0.93 s -0.89 -0.39 -0.89 -0.93 Z" stroke-linecap="round" />
</g>
<g transform="matrix(1 0 0 1 273.33 219.48)"  >
<path style="stroke: none; stroke-width: 0; stroke-dasharray: 1 10; stroke-linecap: butt; stroke-dashoffset: 0; stroke-linejoin: miter; stroke-miterlimit: 4; fill: rgb(179,181,183); fill-rule: nonzero; opacity: 1;" vector-effect="non-scaling-stroke"  transform=" translate(-171.83, -202.98)" d="M 168.95 202.97 c 0 -2.43 1.64 -3.83 3.51 -3.83 c 0.96 0 1.62 0.39 2.13 0.86 l -0.63 0.82 c -0.42 -0.38 -0.87 -0.64 -1.45 -0.64 c -1.32 0 -2.29 1.14 -2.29 2.81 s 0.92 2.79 2.26 2.79 c 0.67 0 1.26 -0.32 1.71 -0.73 l 0.53 0.83 c -0.65 0.58 -1.48 0.93 -2.36 0.93 c -1.94 0 -3.42 -1.4 -3.42 -3.82 Z" stroke-linecap="round" />
</g>
<g transform="matrix(1 0 0 1 280.79 219.46)"  >
<path style="stroke: none; stroke-width: 0; stroke-dasharray: 1 10; stroke-linecap: butt; stroke-dashoffset: 0; stroke-linejoin: miter; stroke-miterlimit: 4; fill: rgb(179,181,183); fill-rule: nonzero; opacity: 1;" vector-effect="non-scaling-stroke"  transform=" translate(-179.29, -202.96)" d="M 175.91 202.97 c 0 -2.43 1.59 -3.83 3.38 -3.83 s 3.38 1.4 3.38 3.83 s -1.59 3.82 -3.38 3.82 s -3.38 -1.4 -3.38 -3.82 Z m 5.48 0 c 0 -1.67 -0.85 -2.81 -2.1 -2.81 s -2.1 1.14 -2.1 2.81 s 0.85 2.79 2.1 2.79 s 2.1 -1.12 2.1 -2.79 Z" stroke-linecap="round" />
</g>
<g transform="matrix(1 0 0 1 291.55 219.37)"  >
<path style="stroke: none; stroke-width: 0; stroke-dasharray: 1 10; stroke-linecap: butt; stroke-dashoffset: 0; stroke-linejoin: miter; stroke-miterlimit: 4; fill: rgb(179,181,183); fill-rule: nonzero; opacity: 1;" vector-effect="non-scaling-stroke"  transform=" translate(-190.05, -202.87)" d="M 185.02 199.31 h 1.02 l 0.1 1.06 h 0.04 c 0.64 -0.69 1.4 -1.24 2.27 -1.24 c 1.12 0 1.71 0.53 2.01 1.39 c 0.76 -0.82 1.52 -1.39 2.4 -1.39 c 1.5 0 2.22 0.99 2.22 2.85 v 4.62 h -1.23 v -4.46 c 0 -1.36 -0.43 -1.94 -1.36 -1.94 c -0.57 0 -1.15 0.37 -1.83 1.12 v 5.28 h -1.23 v -4.46 c 0 -1.36 -0.43 -1.94 -1.36 -1.94 c -0.55 0 -1.15 0.37 -1.83 1.12 v 5.28 h -1.23 v -7.29 Z" stroke-linecap="round" />
</g>
<g transform="matrix(1 0 0 1 164.22 303.63)"  >
<path style="stroke: none; stroke-width: 0; stroke-dasharray: 1 10; stroke-linecap: butt; stroke-dashoffset: 0; stroke-linejoin: miter; stroke-miterlimit: 4; fill: rgb(179,181,183); fill-rule: nonzero; opacity: 1;" vector-effect="non-scaling-stroke"  transform=" translate(-62.72, -287.13)" d="M 61.07 288.89 l 0.84 -1.41 l -1.45 -0.61 l 0.22 -0.69 l 1.54 0.38 l 0.13 -1.62 h 0.73 l 0.13 1.61 l 1.54 -0.37 l 0.22 0.69 l -1.46 0.61 l 0.85 1.41 l -0.59 0.43 l -1.05 -1.28 l -1.07 1.28 l -0.59 -0.43 Z" stroke-linecap="round" />
</g>
<g transform="matrix(1 0 0 1 170.91 303.63)"  >
<path style="stroke: none; stroke-width: 0; stroke-dasharray: 1 10; stroke-linecap: butt; stroke-dashoffset: 0; stroke-linejoin: miter; stroke-miterlimit: 4; fill: rgb(179,181,183); fill-rule: nonzero; opacity: 1;" vector-effect="non-scaling-stroke"  transform=" translate(-69.41, -287.13)" d="M 67.77 288.89 l 0.84 -1.41 l -1.45 -0.61 l 0.22 -0.69 l 1.54 0.38 l 0.13 -1.62 h 0.73 l 0.13 1.61 l 1.54 -0.37 l 0.22 0.69 l -1.46 0.61 l 0.85 1.41 l -0.59 0.43 l -1.05 -1.28 l -1.07 1.28 l -0.59 -0.43 Z" stroke-linecap="round" />
</g>
<g transform="matrix(1 0 0 1 177.63 303.63)"  >
<path style="stroke: none; stroke-width: 0; stroke-dasharray: 1 10; stroke-linecap: butt; stroke-dashoffset: 0; stroke-linejoin: miter; stroke-miterlimit: 4; fill: rgb(179,181,183); fill-rule: nonzero; opacity: 1;" vector-effect="non-scaling-stroke"  transform=" translate(-76.13, -287.13)" d="M 74.48 288.89 l 0.84 -1.41 l -1.45 -0.61 l 0.22 -0.69 l 1.54 0.38 l 0.13 -1.62 h 0.73 l 0.13 1.61 l 1.54 -0.37 l 0.22 0.69 l -1.46 0.61 l 0.85 1.41 l -0.59 0.43 l -1.05 -1.28 l -1.07 1.28 l -0.59 -0.43 Z" stroke-linecap="round" />
</g>
<g transform="matrix(1 0 0 1 184.32 303.63)"  >
<path style="stroke: none; stroke-width: 0; stroke-dasharray: 1 10; stroke-linecap: butt; stroke-dashoffset: 0; stroke-linejoin: miter; stroke-miterlimit: 4; fill: rgb(179,181,183); fill-rule: nonzero; opacity: 1;" vector-effect="non-scaling-stroke"  transform=" translate(-82.83, -287.13)" d="M 81.18 288.89 l 0.84 -1.41 l -1.45 -0.61 l 0.22 -0.69 l 1.54 0.38 l 0.13 -1.62 h 0.73 l 0.13 1.61 l 1.54 -0.37 l 0.22 0.69 l -1.46 0.61 l 0.85 1.41 l -0.59 0.43 l -1.05 -1.28 l -1.07 1.28 l -0.59 -0.43 Z" stroke-linecap="round" />
</g>
<g transform="matrix(1 0 0 1 191.03 303.63)"  >
<path style="stroke: none; stroke-width: 0; stroke-dasharray: 1 10; stroke-linecap: butt; stroke-dashoffset: 0; stroke-linejoin: miter; stroke-miterlimit: 4; fill: rgb(179,181,183); fill-rule: nonzero; opacity: 1;" vector-effect="non-scaling-stroke"  transform=" translate(-89.53, -287.13)" d="M 87.89 288.89 l 0.84 -1.41 l -1.45 -0.61 l 0.22 -0.69 l 1.54 0.38 l 0.13 -1.62 h 0.73 l 0.13 1.61 l 1.54 -0.37 l 0.22 0.69 l -1.46 0.61 l 0.85 1.41 l -0.59 0.43 l -1.05 -1.28 l -1.07 1.28 l -0.59 -0.43 Z" stroke-linecap="round" />
</g>
<g transform="matrix(1 0 0 1 197.74 303.63)"  >
<path style="stroke: none; stroke-width: 0; stroke-dasharray: 1 10; stroke-linecap: butt; stroke-dashoffset: 0; stroke-linejoin: miter; stroke-miterlimit: 4; fill: rgb(179,181,183); fill-rule: nonzero; opacity: 1;" vector-effect="non-scaling-stroke"  transform=" translate(-96.24, -287.13)" d="M 94.59 288.89 l 0.84 -1.41 l -1.45 -0.61 l 0.22 -0.69 l 1.54 0.38 l 0.13 -1.62 h 0.73 l 0.13 1.61 l 1.54 -0.37 l 0.22 0.69 l -1.46 0.61 l 0.85 1.41 l -0.59 0.43 l -1.05 -1.28 l -1.07 1.28 l -0.59 -0.43 Z" stroke-linecap="round" />
</g>
<g transform="matrix(1 0 0 1 204.44 303.63)"  >
<path style="stroke: none; stroke-width: 0; stroke-dasharray: 1 10; stroke-linecap: butt; stroke-dashoffset: 0; stroke-linejoin: miter; stroke-miterlimit: 4; fill: rgb(179,181,183); fill-rule: nonzero; opacity: 1;" vector-effect="non-scaling-stroke"  transform=" translate(-102.94, -287.13)" d="M 101.3 288.89 l 0.84 -1.41 l -1.45 -0.61 l 0.22 -0.69 l 1.54 0.38 l 0.13 -1.62 h 0.73 l 0.13 1.61 l 1.54 -0.37 l 0.22 0.69 l -1.46 0.61 l 0.85 1.41 l -0.59 0.43 l -1.05 -1.28 l -1.07 1.28 l -0.59 -0.43 Z" stroke-linecap="round" />
</g>
<g transform="matrix(1 0 0 1 211.15 303.63)"  >
<path style="stroke: none; stroke-width: 0; stroke-dasharray: 1 10; stroke-linecap: butt; stroke-dashoffset: 0; stroke-linejoin: miter; stroke-miterlimit: 4; fill: rgb(179,181,183); fill-rule: nonzero; opacity: 1;" vector-effect="non-scaling-stroke"  transform=" translate(-109.65, -287.13)" d="M 108 288.89 l 0.84 -1.41 l -1.45 -0.61 l 0.22 -0.69 l 1.54 0.38 l 0.13 -1.62 h 0.73 l 0.13 1.61 l 1.54 -0.37 l 0.22 0.69 l -1.46 0.61 l 0.85 1.41 l -0.59 0.43 l -1.05 -1.28 l -1.07 1.28 l -0.59 -0.43 Z" stroke-linecap="round" />
</g>
</svg>